<svg width="78" height="64" viewBox="0 0 78 64" fill="none" xmlns="http://www.w3.org/2000/svg">
<path d="M24.9768 20.5364C22.1592 20.5364 19.8752 22.8196 19.8752 25.6372V35.9155C19.8752 38.7338 22.1592 41.0178 24.9768 41.0178H53.1745C55.9921 41.0178 58.2752 38.7346 58.2752 35.9155V15.3968C58.2752 12.5801 55.9921 10.2969 53.1745 10.2969H19.8752V15.4166H51.5017C52.4153 15.4166 53.1555 16.1569 53.1555 17.0704V34.2435C53.1555 35.1563 52.4153 35.8973 51.5017 35.8973H26.6488C25.736 35.8973 24.9958 35.1555 24.9958 34.2435V27.31C24.9958 26.3972 25.736 25.657 26.6488 25.657H48.035V20.5372H24.9768V20.5364Z" fill="#14142B"/>
<path d="M48.6178 51.1552C48.6178 53.0283 47.3416 54.0686 45.5991 54.0686C43.8535 54.0686 42.5797 53.0283 42.5797 51.1552C42.5797 49.2837 43.8535 48.2418 45.5991 48.2418C47.3416 48.2418 48.6178 49.2837 48.6178 51.1552ZM36.1553 53.896H37.4687L37.8067 53.1676C38.2136 53.8113 38.8699 54.0686 39.607 54.0686C41.3629 54.0686 42.0176 52.7006 42.0176 51.1552C42.0176 49.6138 41.3637 48.2418 39.607 48.2418C39.0829 48.2418 38.5327 48.5577 38.1004 49.0494V46.1376H35.1966V47.0733H35.7349C36.0737 47.0733 36.1553 47.2467 36.1553 47.5776V53.896ZM29.5892 53.896H30.9025L31.2406 53.1676C31.6483 53.8113 32.3046 54.0686 33.0408 54.0686C34.7968 54.0686 35.4515 52.7006 35.4515 51.1552C35.4515 49.6138 34.7976 48.2418 33.0408 48.2418C32.5176 48.2418 31.9665 48.5577 31.5327 49.0494V46.1376H28.6304V47.0733H29.1688C29.5076 47.0733 29.5892 47.2467 29.5892 47.5776V53.896ZM24.114 47.8785H24.1377L24.9785 50.3976H23.2803L24.114 47.8785ZM23.4125 46.1368L21.4587 51.9857C21.2212 52.6998 21.0605 52.8644 20.6512 52.8644H20.2522V53.8952H23.692V52.8644H23.3555C23.0381 52.8644 22.6272 52.8288 22.6272 52.6396C22.6272 52.4757 22.6747 52.3023 22.8022 51.8946L22.9447 51.426H25.3316L25.5762 52.2667C25.6229 52.4425 25.6348 52.5715 25.6348 52.6911C25.6348 52.8185 25.3426 52.8652 24.9911 52.8652H24.6412V53.896H28.9107V52.8652H28.5133C28.1064 52.8652 27.9417 52.6998 27.7089 51.9865L25.7535 46.1376H23.4125V46.1368ZM33.3821 51.1552C33.3821 52.3506 33.1153 53.0639 32.4574 53.0639C31.8027 53.0639 31.5335 52.3506 31.5335 51.1552C31.5335 49.9629 31.8027 49.2496 32.4574 49.2496C33.1153 49.2496 33.3821 49.9629 33.3821 51.1552ZM45.5991 49.1784C44.8977 49.1784 44.6515 49.7745 44.6515 51.1552C44.6515 52.5351 44.8977 53.132 45.5991 53.132C46.3005 53.132 46.5452 52.5351 46.5452 51.1552C46.5444 49.7745 46.2998 49.1784 45.5991 49.1784ZM56.9604 51.2502V52.1622C56.9604 52.7006 56.844 53.0188 56.3991 53.0188C56.1307 53.0188 56.0025 52.8185 56.0025 52.5723V49.3541H57.4386V48.4176H56.0025V46.2437H54.8419C54.7469 47.2135 54.4437 48.4176 53.2736 48.4176H51.4496V46.2437H50.2921C50.1979 47.2135 49.8924 48.4176 48.7246 48.4176V49.3541H49.5076V52.2905C49.5076 53.4843 50.1742 54.0686 51.3775 54.0686C52.7851 54.0686 53.3425 53.4384 53.3425 52.2905V51.2502H52.4099V52.1622C52.4099 52.7006 52.2919 53.0188 51.8486 53.0188C51.577 53.0188 51.4488 52.8185 51.4488 52.5723V49.3541H54.0613V52.2905C54.0613 53.4843 54.7255 54.0686 55.9312 54.0686C57.3341 54.0686 57.8977 53.4384 57.8977 52.2905V51.2502H56.9604ZM39.9474 51.1552C39.9474 52.3506 39.6814 53.0639 39.0219 53.0639C38.368 53.0639 38.0996 52.3506 38.0996 51.1552C38.0996 49.9629 38.368 49.2496 39.0219 49.2496C39.6814 49.2496 39.9474 49.9629 39.9474 51.1552Z" fill="#14142B"/>
</svg>
