<?xml version="1.0" encoding="utf-8"?>
<!-- Generator: $$$/GeneralStr/196=Adobe Illustrator 27.6.0, SVG Export Plug-In . SVG Version: 6.00 Build 0)  -->
<svg version="1.1" id="Capa_1" xmlns="http://www.w3.org/2000/svg" xmlns:xlink="http://www.w3.org/1999/xlink" x="0px" y="0px"
	 viewBox="0 0 120 100" style="enable-background:new 0 0 120 100;" xml:space="preserve">
<style type="text/css">
	.st0{fill:#1E1E1C;}
</style>
<g>
	<g>
		<path class="st0" d="M29.07,25.25C15.4,25.25,4.32,36.33,4.32,50S15.4,74.75,29.07,74.75S53.81,63.67,53.81,50
			S42.73,25.25,29.07,25.25L29.07,25.25z M52.2,50c0,12.78-10.36,23.14-23.14,23.14S5.93,62.78,5.93,50s10.36-23.14,23.14-23.14
			S52.2,37.22,52.2,50z"/>
		<g>
			<path id="W_00000012455991461655978060000010135662434384837820_" class="st0" d="M41.06,39.5c0.34,0.36,0.82,0.94,1.09,1.3
				l5.01-3.18c-0.25-0.33-0.65-0.82-0.95-1.18l-3.17,2.1l-0.22,0.19l0.16-0.24l1.4-2.8L43.4,34.7l-2.8,1.4l-0.24,0.16l0.19-0.22
				l2.1-3.17c-0.37-0.31-0.72-0.6-1.18-0.95l-3.18,5.01c0.4,0.31,0.93,0.77,1.27,1.08l2.99-1.55l0.19-0.14l-0.14,0.19L41.06,39.5z"
				/>
			<path id="M_00000107562520274015138300000013635532594282602418_" class="st0" d="M29.69,33.16l1.37-3.07l0.09-0.27l-0.02,0.28
				l0.14,4.1c0.48,0.05,0.98,0.11,1.47,0.19l-0.22-6.07c-0.68-0.08-1.37-0.13-2.05-0.16l-1.35,3.35l-0.05,0.25l-0.05-0.25
				l-1.35-3.35c-0.68,0.03-1.36,0.08-2.05,0.16l-0.22,6.07c0.49-0.08,0.99-0.15,1.47-0.19l0.14-4.1l-0.02-0.28l0.09,0.27l1.37,3.07
				H29.69z"/>
			<path id="B_x5F_22d_00000137091389671045659860000000084293233629507511_" class="st0" d="M18.62,37.99
				c0.79-0.83,1.24-1.8,0.45-2.72c-0.43-0.5-1.15-0.61-1.75-0.36l-0.06,0.02l0.02-0.05c0.09-0.24,0.15-0.99-0.5-1.52
				c-0.31-0.25-0.71-0.35-1.11-0.31c-0.74,0.08-1.32,0.58-2.87,2.32c-0.47,0.52-1.15,1.35-1.56,1.89c0,0,4.28,4.06,4.28,4.06
				C16.92,39.75,17.5,39.17,18.62,37.99z M13.04,37c0.86-1.05,1.78-2.01,2.19-2.39c0.13-0.12,0.27-0.24,0.45-0.29
				c0.28-0.08,0.57,0.12,0.64,0.41c0.07,0.29-0.12,0.56-0.32,0.79c-0.46,0.51-2.13,2.26-2.13,2.26S13.04,37,13.04,37z M14.71,38.59
				c0,0,1.63-1.72,2.16-2.27c0.21-0.22,0.35-0.35,0.49-0.42c0.19-0.09,0.39-0.11,0.58,0.01c0.18,0.12,0.26,0.33,0.22,0.54
				c-0.05,0.25-0.25,0.48-0.42,0.66c-0.22,0.24-2.15,2.3-2.16,2.31L14.71,38.59z"/>
		</g>
		<path class="st0" d="M29.07,35.33L29.07,35.33L29.07,35.33c-8.11,0-14.67,6.56-14.67,14.67h0l0,0c0,8.1,6.57,14.67,14.67,14.67v0
			c8.11,0,14.67-6.56,14.67-14.67h0C43.74,41.9,37.17,35.33,29.07,35.33z M29.07,50v13.87c-7.65,0-13.87-6.22-13.87-13.87l0,0H29.07
			V36.13l0,0c7.65,0,13.87,6.22,13.87,13.87H29.07z"/>
	</g>
	<path class="st0" d="M88.54,37.63c-2.35,0-4.52,1.25-5.7,3.27L70.31,62.37h27.14c2.35,0,4.52-1.25,5.7-3.27l12.53-21.47H88.54z
		 M102.11,58.49c-0.96,1.65-2.75,2.68-4.66,2.68H81.33l13.03-22.33h19.23L102.11,58.49z"/>
	<path class="st0" d="M104.14,40.96l-2.38,4.09h4.78c0.88,0,1.7-0.47,2.14-1.23l1.67-2.86H104.14z"/>
	<path class="st0" d="M100.06,47.95L93.09,59.9h4.07c1.32,0,2.54-0.7,3.21-1.84l6.61-11.34h-4.78
		C101.32,46.72,100.51,47.19,100.06,47.95"/>
</g>
</svg>
