<svg width="120" height="100" viewBox="0 0 120 100" fill="none" xmlns="http://www.w3.org/2000/svg">
<path d="M70.9464 55.3725C70.9464 56.1608 70.4989 56.6096 69.6559 56.6096C68.8143 56.6096 68.3477 56.1621 68.3477 55.3725C68.3477 54.5843 68.8143 54.1367 69.6559 54.1367C70.4976 54.1367 70.9464 54.5843 70.9464 55.3725Z" fill="#14142B"/>
<path d="M7.95771 58.3542C8.15605 58.3936 8.25522 58.4927 8.25522 58.7114V59.9218C8.25522 60.1201 8.15605 60.2193 7.93737 60.2193H4.82243C2.69919 60.2193 2.42075 60.9135 2.42075 63.7118C2.42075 66.5102 2.69919 67.2247 4.82243 67.2247H7.93737C8.15605 67.2247 8.25522 67.3239 8.25522 67.5222V68.7326C8.25522 68.9513 8.15605 69.0505 7.95771 69.0899C6.90626 69.2691 5.61578 69.3086 4.82243 69.3086C0.794625 69.3086 0 68.1974 0 63.7131C0 59.248 0.793354 58.1367 4.82243 58.1367C5.61578 58.1355 6.90626 58.1749 7.95771 58.3542Z" fill="#14142B"/>
<path d="M18.3552 61.3889V68.2939C18.3552 68.5519 18.3158 68.7503 17.9585 68.8698C16.9262 69.1673 15.1805 69.3059 13.4934 69.3059C10.7154 69.3059 9.30664 68.8698 9.30664 65.9926C9.30664 63.4727 10.6365 62.837 13.0763 62.837H15.9535V61.8046C15.9535 60.6934 15.2988 60.2166 13.7108 60.2166H10.456C10.2182 60.2166 10.1585 60.1569 10.1585 59.9191V58.7088C10.1585 58.471 10.2373 58.4303 10.4369 58.3909C11.627 58.1722 12.6987 58.1328 13.7108 58.1328C17.2046 58.1341 18.3552 59.2453 18.3552 61.3889ZM13.2149 64.5636C12.1635 64.5636 11.6867 64.9005 11.6867 65.8935C11.6867 67.025 12.222 67.3022 13.6904 67.3022C14.1863 67.3022 15.2784 67.2628 15.9523 67.0835V64.5636H13.2149Z" fill="#14142B"/>
<path d="M29.9429 62.8383V68.9105C29.9429 69.1088 29.8234 69.208 29.6251 69.208H27.8388C27.6404 69.208 27.5413 69.1088 27.5413 68.9105V63.2744C27.5413 60.3374 27.0848 60.2179 25.2197 60.2179H22.9388V68.9092C22.9388 69.1076 22.8396 69.2067 22.6413 69.2067H20.8155C20.6172 69.2067 20.5371 69.1076 20.5371 68.9092V58.7685C20.5371 58.5104 20.6363 58.4913 20.8155 58.4507C22.284 58.1532 24.05 58.1328 25.2604 58.1328C28.9309 58.1354 29.9429 58.691 29.9429 62.8383Z" fill="#14142B"/>
<path d="M34.8633 54.4724C35.082 54.4126 35.2002 54.5321 35.2002 54.7508V58.2548H37.1645C37.3629 58.2548 37.4824 58.354 37.4824 58.5523V59.8021C37.4824 60.0208 37.3629 60.1199 37.1645 60.1199H35.2002V66.1718C35.2002 67.0453 35.4583 67.2232 36.4309 67.2232H37.3044C37.5421 67.2232 37.6413 67.3021 37.6413 67.5004V68.81C37.6413 69.0286 37.5421 69.1278 37.3438 69.1672C36.7882 69.2664 36.2326 69.3058 35.9351 69.3058C34.3878 69.3058 32.7795 69.2664 32.7795 66.8851V60.1187H31.6479C31.4496 60.1187 31.3301 60.0195 31.3301 59.8008V58.551C31.3301 58.3527 31.4496 58.2535 31.6479 58.2535H32.7795V55.2454C32.7795 55.047 32.8786 54.9669 33.0566 54.9275L34.8633 54.4724Z" fill="#14142B"/>
<path d="M47.4841 61.3889V68.2939C47.4841 68.5519 47.4447 68.7503 47.0874 68.8698C46.0551 69.1673 44.3094 69.3059 42.6223 69.3059C39.8443 69.3059 38.4355 68.8698 38.4355 65.9926C38.4355 63.4727 39.7654 62.837 42.2052 62.837H45.0824V61.8046C45.0824 60.6934 44.4277 60.2166 42.8397 60.2166H39.5849C39.3471 60.2166 39.2874 60.1569 39.2874 59.9191V58.7088C39.2874 58.471 39.3662 58.4303 39.5646 58.3909C40.7546 58.1722 41.8264 58.1328 42.8384 58.1328C46.3322 58.1341 47.4841 59.2453 47.4841 61.3889ZM42.3438 64.5636C41.2924 64.5636 40.8156 64.9005 40.8156 65.8935C40.8156 67.025 41.3509 67.3022 42.8193 67.3022C43.3152 67.3022 44.4073 67.2628 45.0812 67.0835V64.5636H42.3438Z" fill="#14142B"/>
<path d="M51.6621 54.4757C51.9914 54.3968 52.0817 54.5837 52.0868 54.7414V58.253C52.7415 58.1742 53.5947 58.1335 54.627 58.1335C58.2976 58.1335 59.152 59.3248 59.152 63.7289C59.152 68.1547 58.2988 69.3053 54.2901 69.3053C52.8611 69.3053 51.7308 69.2265 50.0436 68.948C49.8059 68.9086 49.666 68.8095 49.666 68.531V55.2945C49.666 55.0758 49.727 54.9664 49.9635 54.8965L51.6621 54.4757ZM52.0868 60.2186V67.0651C52.781 67.1643 53.6747 67.224 54.3092 67.224C56.5316 67.224 56.7503 66.4307 56.7503 63.7315C56.7503 60.8746 56.4731 60.2186 54.2494 60.2186H52.0868Z" fill="#14142B"/>
<path d="M66.8308 58.3515C67.0291 58.4112 67.1486 58.4901 67.1486 58.7088V59.9191C67.1486 60.1378 67.0291 60.237 66.8117 60.2166H65.0063C63.8163 60.2166 63.459 60.415 63.459 61.2884V68.9079C63.459 69.1063 63.3598 69.2054 63.1615 69.2054H61.3561C61.1578 69.2054 61.0586 69.1063 61.0586 68.9079V60.6731C61.0586 58.3121 62.9441 58.1328 64.4126 58.1328C64.9262 58.1328 66.2955 58.1926 66.8308 58.3515Z" fill="#14142B"/>
<path d="M70.5404 58.2344C70.7387 58.2344 70.8379 58.3335 70.8379 58.5319V68.9103C70.8379 69.1087 70.7387 69.2078 70.5404 69.2078H68.735C68.5367 69.2078 68.4375 69.1087 68.4375 68.9103V58.5319C68.4375 58.3335 68.5367 58.2344 68.735 58.2344H70.5404Z" fill="#14142B"/>
<path d="M81.5525 61.3889V68.2939C81.5525 68.5519 81.5131 68.7503 81.1558 68.8698C80.1234 69.1673 78.3778 69.3059 76.6906 69.3059C73.9126 69.3059 72.5039 68.8698 72.5039 65.9926C72.5039 63.4727 73.8338 62.837 76.2736 62.837H79.1508V61.8046C79.1508 60.6934 78.496 60.2166 76.908 60.2166H73.6533C73.4155 60.2166 73.3557 60.1569 73.3557 59.9191V58.7088C73.3557 58.471 73.4346 58.4303 73.6329 58.3909C74.8229 58.1722 75.8947 58.1328 76.9068 58.1328C80.4019 58.1341 81.5525 59.2453 81.5525 61.3889ZM76.4135 64.5636C75.362 64.5636 74.8852 64.9005 74.8852 65.8935C74.8852 67.025 75.4205 67.3022 76.889 67.3022C77.3848 67.3022 78.477 67.2628 79.1508 67.0835V64.5636H76.4135Z" fill="#14142B"/>
<path d="M88.7765 54.5577C89.1414 54.4636 89.1642 54.498 89.1642 54.8107V69.0949C89.1642 69.1839 89.0651 69.2628 88.9061 69.2628H87.9729C87.814 69.2628 87.7148 69.1839 87.7148 69.0047V55.0256C87.7148 54.812 87.7962 54.7917 88.123 54.7179L88.7765 54.5577Z" fill="#14142B"/>
<path d="M99.3649 61.5052V68.4509C99.3649 68.6098 99.3853 68.8272 99.0077 68.9671C98.3923 69.2048 96.5475 69.3637 94.7815 69.3637C92.1815 69.3637 91.1504 68.709 91.1504 66.2285C91.1504 64.0455 92.2616 63.2915 94.4637 63.2915H97.9359V61.7239C97.9359 60.2351 96.9442 59.6998 94.9989 59.6998H92.3201C92.1217 59.6998 92.062 59.6401 92.062 59.4417V58.8861C92.062 58.6878 92.1217 58.6484 92.2997 58.6077C93.3906 58.4488 94.2844 58.4297 94.9989 58.4297C97.7375 58.4297 99.3649 59.204 99.3649 61.5052ZM94.4637 64.5413C93.1745 64.5413 92.5782 64.9774 92.5782 66.2285C92.5782 67.6969 93.2329 68.114 95.0981 68.114C95.7135 68.114 97.1018 68.0745 97.9359 67.8559V64.5413H94.4637Z" fill="#14142B"/>
<path d="M103.063 54.5373C103.295 54.4788 103.407 54.4953 103.41 54.8615V58.546C104.105 58.4672 105.017 58.4265 106.149 58.4265C109.939 58.4265 110.633 59.4983 110.633 63.8834C110.633 68.2684 109.958 69.3606 106.267 69.3606C104.898 69.3606 104.065 69.3212 102.239 69.0427C102.041 69.0224 101.961 68.9436 101.961 68.7452V55.0268C101.961 54.8272 102.035 54.8043 102.223 54.7585L103.063 54.5373ZM103.41 59.6979V67.8934C104.443 68.032 105.414 68.0917 106.267 68.0917C108.886 68.0917 109.204 67.2386 109.204 63.8656C109.204 60.5116 108.867 59.6979 106.148 59.6979H103.41Z" fill="#14142B"/>
<path d="M119.345 58.5656C119.504 58.586 119.583 58.6851 119.583 58.8237V59.4391C119.583 59.6171 119.504 59.6972 119.325 59.6972H115.713C114.82 59.6972 113.986 59.9756 113.986 60.8872V61.2051C113.986 61.8802 114.244 62.376 115.316 62.8121L118.115 63.9437C119.841 64.6379 120 65.5711 120 66.6022V66.8399C120 68.9428 118.849 69.3598 116.111 69.3598C114.682 69.3598 112.976 69.2403 112.658 69.2009C112.459 69.1806 112.42 69.0814 112.42 68.9632V68.3478C112.42 68.1698 112.499 68.0897 112.658 68.0897H116.15C117.996 68.0897 118.571 67.852 118.571 66.8399V66.5818C118.571 65.9271 118.333 65.491 117.381 65.093L114.405 63.9017C112.897 63.2864 112.559 62.2552 112.559 61.1835V60.7474C112.559 58.6038 114.523 58.4258 116.27 58.4258C117.043 58.4271 118.313 58.4461 119.345 58.5656Z" fill="#14142B"/>
<path d="M30.0312 79.8896C30.0312 78.2902 31.0598 76.7734 32.9542 76.7734C33.5556 76.7734 33.9828 76.926 34.2676 77.1294L33.9726 78.1275C33.6369 77.8834 33.2492 77.7511 32.8525 77.7511C31.8239 77.7511 31.2327 78.6577 31.2327 79.7676C31.2327 80.5724 31.548 81.0606 32.2715 81.0606C32.6478 81.0606 33.0966 80.9284 33.534 80.6843L33.4628 81.6518C33.1475 81.8451 32.6681 82.0281 32.0477 82.0281C30.6021 82.0281 30.0312 81.0708 30.0312 79.8896Z" fill="#14142B"/>
<path d="M36.8013 79.8693C36.4453 79.8693 36.1288 79.8286 35.9864 79.7981C36.027 80.7555 36.5877 81.0606 37.198 81.0606C37.6354 81.0606 38.2876 80.8979 38.725 80.6843L38.6131 81.6416C38.2164 81.8349 37.615 82.0281 36.9526 82.0281C35.4549 82.0281 34.7734 81.0708 34.7734 79.849C34.7734 78.28 35.8834 76.7734 37.5947 76.7734C38.6436 76.7734 39.2043 77.343 39.2043 78.1885C39.2055 79.2781 38.238 79.8693 36.8013 79.8693ZM36.0893 79.0442C36.2419 79.0848 36.364 79.1052 36.6399 79.1052C37.8718 79.1052 38.2088 78.6564 38.2088 78.2699C38.2088 77.8223 37.7816 77.7511 37.5362 77.7511C36.7912 77.7511 36.2928 78.4123 36.0893 79.0442Z" fill="#14142B"/>
<path d="M41.5604 82.0255H41.1434C40.42 82.0255 40.125 81.5983 40.125 81.0376C40.125 80.9359 40.1352 80.824 41.2858 74.2852H42.4466C41.357 80.4464 41.3367 80.6193 41.3367 80.7413C41.3367 81.0579 41.5096 81.077 41.8452 81.077L41.5604 82.0255Z" fill="#14142B"/>
<path d="M45.0318 79.8693C44.6758 79.8693 44.3592 79.8286 44.2168 79.7981C44.2575 80.7555 44.8182 81.0606 45.4285 81.0606C45.8658 81.0606 46.5181 80.8979 46.9554 80.6843L46.8435 81.6416C46.4469 81.8349 45.8455 82.0281 45.1831 82.0281C43.6854 82.0281 43.0039 81.0708 43.0039 79.849C43.0039 78.28 44.1138 76.7734 45.8251 76.7734C46.8741 76.7734 47.4347 77.343 47.4347 78.1885C47.4347 79.2781 46.4672 79.8693 45.0318 79.8693ZM44.3185 79.0442C44.4711 79.0848 44.5932 79.1052 44.8691 79.1052C46.101 79.1052 46.438 78.6564 46.438 78.2699C46.438 77.8223 46.0108 77.7511 45.7654 77.7511C45.0216 77.7511 44.5232 78.4123 44.3185 79.0442Z" fill="#14142B"/>
<path d="M49.3589 81.5271L49.2572 81.9237H48.1777L49.5216 74.2852H50.6824L50.1624 77.2081C50.5387 76.8928 50.9163 76.7707 51.3842 76.7707C52.6976 76.7707 53.3091 77.7281 53.3091 78.9194C53.3091 80.5188 52.189 82.0255 50.4879 82.0255C49.9285 82.0267 49.6335 81.8436 49.3589 81.5271ZM49.664 79.8374C49.664 80.632 49.9488 81.0592 50.5705 81.0592C51.4872 81.0592 52.1191 80.112 52.1191 79.0326C52.1191 78.2786 51.8139 77.7497 51.121 77.7497C50.123 77.7497 49.664 78.819 49.664 79.8374Z" fill="#14142B"/>
<path d="M57.3616 77.8803H56.9345C56.5378 77.8803 56.1297 78.1447 55.9466 78.4295L55.3249 81.9233H54.1641L55.0604 76.8619H56.1297L56.0585 77.4938C56.4043 77.0869 56.9446 76.75 57.4939 76.75H57.7888L57.3616 77.8803Z" fill="#14142B"/>
<path d="M62.5265 80.3651C62.496 80.5278 62.4858 80.6702 62.4858 80.7516C62.4858 81.0465 62.6079 81.077 62.9753 81.077L62.7007 82.0242C61.8044 82.0242 61.5399 81.9429 61.3161 81.3923C60.9907 81.728 60.491 82.0242 59.8299 82.0242C58.6792 82.0242 57.9863 81.1076 57.9863 79.8654C57.9863 78.3079 59.0861 76.7695 60.8381 76.7695C61.3161 76.7695 61.6531 76.8916 61.9073 77.2069L62.0701 76.8611H63.119L62.5265 80.3651ZM59.1865 79.7751C59.1865 80.5189 59.4815 81.058 60.1948 81.058C61.2132 81.058 61.6314 79.9582 61.6314 79.0008C61.6314 78.1859 61.3568 77.7485 60.7249 77.7485C59.8184 77.7485 59.1865 78.6754 59.1865 79.7751Z" fill="#14142B"/>
<path d="M66.3954 82.0257H65.5601C64.7858 82.0257 64.4807 81.5476 64.4807 80.9971C64.4807 80.8954 64.4909 80.7734 65.021 77.7995H64.3281L64.5926 76.8625H65.1838L65.3974 75.7119L66.5683 75.5898L66.3446 76.8625H67.4138L67.2511 77.7995H66.1818C65.714 80.4479 65.6923 80.6106 65.6923 80.7327C65.6923 81.0581 65.8551 81.0785 66.3547 81.0785H66.67L66.3954 82.0257Z" fill="#14142B"/>
<path d="M69.9185 79.8693C69.5625 79.8693 69.2459 79.8286 69.1035 79.7981C69.1442 80.7555 69.7049 81.0606 70.3152 81.0606C70.7526 81.0606 71.4048 80.8979 71.8421 80.6843L71.7303 81.6416C71.3336 81.8349 70.7322 82.0281 70.0698 82.0281C68.5721 82.0281 67.8906 81.0708 67.8906 79.849C67.8906 78.28 69.0006 76.7734 70.7119 76.7734C71.7608 76.7734 72.3215 77.343 72.3215 78.1885C72.3227 79.2781 71.3539 79.8693 69.9185 79.8693ZM69.2053 79.0442C69.3578 79.0848 69.4799 79.1052 69.7558 79.1052C70.9878 79.1052 71.3247 78.6564 71.3247 78.2699C71.3247 77.8223 70.8975 77.7511 70.6521 77.7511C69.9083 77.7511 69.4099 78.4123 69.2053 79.0442Z" fill="#14142B"/>
<path d="M77.3729 82.0255H76.9559C76.2325 82.0255 75.9375 81.5983 75.9375 81.0376C75.9375 80.9359 75.9477 80.824 77.0983 74.2852H78.2591C77.1695 80.4464 77.1492 80.6193 77.1492 80.7413C77.1492 81.0579 77.3221 81.077 77.6577 81.077L77.3729 82.0255Z" fill="#14142B"/>
<path d="M78.7773 81.9256L79.6635 76.8642H80.8243L79.9381 81.9256H78.7773ZM79.8263 75.9882L80.0297 74.7969H81.2006L80.987 75.9882H79.8263Z" fill="#14142B"/>
<path d="M83.7377 77.8019L83.0143 81.9264H81.8535L82.5769 77.8019H81.884L82.1586 76.8649H82.7397L82.9634 75.6431C83.0855 74.9299 83.4618 74.2891 84.5514 74.2891C84.8464 74.2891 85.1731 74.3399 85.4071 74.3704L85.1223 75.338C84.9087 75.2871 84.807 75.2769 84.6849 75.2769C84.2272 75.2769 84.1548 75.4499 84.0225 76.2038L83.9005 76.8662H84.9799L84.8172 77.8032H83.7377V77.8019Z" fill="#14142B"/>
<path d="M87.4036 79.8693C87.0476 79.8693 86.731 79.8286 86.5886 79.7981C86.6293 80.7555 87.1887 81.0606 87.8002 81.0606C88.2376 81.0606 88.8898 80.8979 89.3285 80.6843L89.2166 81.6416C88.8199 81.8349 88.2185 82.0281 87.5561 82.0281C86.0597 82.0281 85.377 81.0708 85.377 79.849C85.377 78.28 86.4869 76.7734 88.1982 76.7734C89.2471 76.7734 89.8078 77.343 89.8078 78.1885C89.8078 79.2781 88.839 79.8693 87.4036 79.8693ZM86.6903 79.0442C86.8429 79.0848 86.9649 79.1052 87.2408 79.1052C88.4728 79.1052 88.8097 78.6564 88.8097 78.2699C88.8097 77.8223 88.3826 77.7511 88.1372 77.7511C87.3934 77.7511 86.895 78.4123 86.6903 79.0442Z" fill="#14142B"/>
<path d="M59.886 18C52.803 18 46.7715 23.0119 45.3945 29.6867H50.4369C50.4369 35.525 55.3763 39.179 59.9089 39.179C64.6436 39.179 69.2969 35.5085 69.4164 29.6893H74.4321C73.0564 23.0131 66.9702 18 59.886 18ZM59.9152 35.2923C56.8257 35.2923 54.3121 32.7788 54.3121 29.6893C54.3121 26.5998 56.8194 24.0837 59.9089 24.0837C62.9984 24.0837 65.5183 26.5998 65.5183 29.6893C65.5196 32.7788 63.0047 35.2923 59.9152 35.2923Z" fill="#14142B"/>
<path d="M59.9043 27.3242C58.5947 27.3242 57.5293 28.3897 57.5293 29.6992C57.5293 31.0087 58.5947 32.0742 59.9043 32.0742C61.2138 32.0742 62.2793 31.0087 62.2793 29.6992C62.2793 28.3897 61.2138 27.3242 59.9043 27.3242Z" fill="#14142B"/>
<path d="M53.5392 46.3066C48.4167 43.952 45.153 38.7621 45.0449 33.1133H47.3894C48.4256 36.9453 51.0281 39.4271 53.5392 40.7976V46.3066Z" fill="#14142B"/>
<path d="M66.2812 40.7976C68.7923 39.4271 71.3961 36.944 72.431 33.1133H74.7755C74.6661 38.7621 71.4037 43.952 66.2812 46.3066V40.7976Z" fill="#14142B"/>
</svg>
