<svg width="120" height="100" viewBox="0 0 120 100" fill="none" xmlns="http://www.w3.org/2000/svg">
<path d="M42.8925 58.9219H38.5078V76.2981H42.8925V58.9219Z" fill="#14142B"/>
<path d="M78.2491 63.9008C78.0702 63.8083 76.6565 62.9729 74.5593 62.9729C71.7247 62.9729 69.7576 64.9463 69.7576 67.6072C69.7576 70.1891 71.6404 72.2457 74.5593 72.2457C76.6211 72.2457 78.0556 71.428 78.2491 71.323V75.9874C77.6988 76.1424 76.2008 76.6064 74.2535 76.6064C69.3217 76.6064 64.9922 73.2058 64.9922 67.6072C64.9922 62.4175 68.9098 58.6133 74.2535 58.6133C76.3101 58.6133 77.834 59.1136 78.2491 59.2353V63.9008Z" fill="#14142B"/>
<path d="M32.4802 63.9008C32.3034 63.8083 30.8928 62.9729 28.7967 62.9729C25.9568 62.9729 23.9918 64.9463 23.9918 67.6072C23.9918 70.1891 25.8757 72.2457 28.7967 72.2457C30.8585 72.2457 32.2919 71.428 32.4802 71.323V75.9874C31.9351 76.1424 30.4403 76.6064 28.4815 76.6064C23.5528 76.6064 19.2285 73.2058 19.2285 67.6072C19.2285 62.4175 23.1461 58.6133 28.4815 58.6133C30.5443 58.6133 32.0672 59.1136 32.4802 59.2353V63.9008Z" fill="#14142B"/>
<path d="M101.225 67.6072C101.225 72.5786 97.386 76.6064 92.0423 76.6064C86.6985 76.6064 82.8652 72.5786 82.8652 67.6072C82.8652 62.6442 86.6985 58.6133 92.0423 58.6133C97.386 58.6133 101.225 62.6442 101.225 67.6072ZM92.0423 63.0374C89.4406 63.0374 87.5099 65.0846 87.5099 67.6072C87.5099 70.135 89.4417 72.1812 92.0423 72.1812C94.6408 72.1812 96.5778 70.1361 96.5778 67.6072C96.5778 65.0846 94.6408 63.0374 92.0423 63.0374Z" fill="#14142B"/>
<path d="M59.5223 62.8723C59.4568 62.8515 57.6114 62.3418 56.0947 62.3418C54.3367 62.3418 53.3817 62.9305 53.3817 63.7659C53.3817 64.8238 54.6706 65.1931 55.3915 65.4209L56.6013 65.8058C59.4464 66.7108 60.7436 68.6592 60.7436 70.7771C60.7436 75.142 56.905 76.6077 53.5492 76.6077C51.2159 76.6077 49.0325 76.1791 48.8171 76.1333V72.1346C49.2041 72.2324 51.0412 72.7806 52.9583 72.7806C55.1397 72.7806 56.1436 72.1429 56.1436 71.1589C56.1436 70.2788 55.276 69.7701 54.1879 69.4279C53.9216 69.3395 53.5232 69.2147 53.2517 69.1252C50.8092 68.3533 48.7734 66.9188 48.7734 64.0415C48.7734 60.7918 51.2066 58.6094 55.249 58.6094C57.3836 58.6094 59.3923 59.1274 59.5233 59.1628V62.8723H59.5223Z" fill="#14142B"/>
<path d="M14.5791 40.2509C14.5791 39.0536 13.6013 38.082 12.4018 38.082C11.2045 38.082 10.2246 39.0536 10.2246 40.2509V44.8124C10.2246 46.017 11.2035 46.9876 12.4018 46.9876C13.6013 46.9876 14.5791 46.016 14.5791 44.8124V40.2509Z" fill="#14142B"/>
<path d="M26.5361 34.2637C26.5361 33.0664 25.5583 32.0938 24.3589 32.0938C23.1595 32.0938 22.1816 33.0664 22.1816 34.2637V44.8118C22.1816 46.0164 23.1595 46.9869 24.3589 46.9869C25.5583 46.9869 26.5361 46.0153 26.5361 44.8118V34.2637Z" fill="#14142B"/>
<path d="M38.4951 26.0713C38.4951 24.8739 37.5173 23.9023 36.3179 23.9023C35.1185 23.9023 34.1406 24.8739 34.1406 26.0713V49.1449C34.1406 50.3495 35.1185 51.32 36.3179 51.32C37.5173 51.32 38.4951 50.3485 38.4951 49.1449V26.0713Z" fill="#14142B"/>
<path d="M50.4502 34.2637C50.4502 33.0664 49.4723 32.0938 48.2729 32.0938C47.0735 32.0938 46.0957 33.0664 46.0957 34.2637V44.8118C46.0957 46.0164 47.0735 46.9869 48.2729 46.9869C49.4723 46.9869 50.4502 46.0153 50.4502 44.8118V34.2637Z" fill="#14142B"/>
<path d="M62.3956 40.2509C62.3956 39.0536 61.424 38.082 60.2319 38.082C59.0325 38.082 58.0547 39.0536 58.0547 40.2509V44.8124C58.0547 46.017 59.0325 46.9876 60.2319 46.9876C61.424 46.9876 62.3956 46.016 62.3956 44.8124V40.2509Z" fill="#14142B"/>
<path d="M74.3575 34.2637C74.3575 33.0664 73.3859 32.0938 72.1875 32.0938C70.9912 32.0938 70.0176 33.0664 70.0176 34.2637V44.8118C70.0176 46.0164 70.9912 46.9869 72.1875 46.9869C73.3869 46.9869 74.3575 46.0153 74.3575 44.8118V34.2637Z" fill="#14142B"/>
<path d="M86.3223 26.0713C86.3223 24.8739 85.3507 23.9023 84.1524 23.9023C82.953 23.9023 81.9824 24.8739 81.9824 26.0713V49.1449C81.9824 50.3495 82.954 51.32 84.1524 51.32C85.3518 51.32 86.3223 50.3485 86.3223 49.1449V26.0713Z" fill="#14142B"/>
<path d="M98.2869 34.2637C98.2869 33.0664 97.3153 32.0938 96.0899 32.0938C94.8905 32.0938 93.9199 33.0664 93.9199 34.2637V44.8118C93.9199 46.0164 94.8915 46.9869 96.0899 46.9869C97.3163 46.9869 98.2869 46.0153 98.2869 44.8118V34.2637Z" fill="#14142B"/>
<path d="M110.224 40.2509C110.224 39.0536 109.25 38.082 108.054 38.082C106.855 38.082 105.881 39.0536 105.881 40.2509V44.8124C105.881 46.017 106.855 46.9876 108.054 46.9876C109.25 46.9876 110.224 46.016 110.224 44.8124V40.2509Z" fill="#14142B"/>
</svg>
