<svg width="120" height="100" viewBox="0 0 120 100" fill="none" xmlns="http://www.w3.org/2000/svg">
<g clip-path="url(#clip0_4736_119121)">
<path d="M29.4331 62.8305C25.9016 63.7208 23.6747 64.1992 19.9348 65.092C4.06286 69.0353 4.54375 60.669 5.33291 56.7626C6.41801 51.1657 9.18993 46.3062 14.4169 40.3284C17.3306 37.2161 20.0359 34.549 23.6081 33.475C26.3431 32.729 26.0903 34.8671 25.761 35.1532C25.4096 35.1606 23.2086 35.311 22.9373 37.8351C22.7511 39.5565 25.3517 40.1163 26.9004 36.2149C28.1359 33.1075 25.9004 31.7351 24.7031 31.6205C14.2701 30.7499 -5.06796 51.3544 0.848267 63.9822C2.41919 66.7356 6.26141 68.7801 10.407 68.2449C12.5944 67.9638 15.0346 67.489 19.0236 66.5322C21.3948 65.96 33.57 61.9822 37.5652 68.9465C37.5652 68.9465 38.8944 66.4779 42.2175 66.4261C44.9524 66.1919 48.8057 67.2165 51.7614 69.2055C50.8588 68.1413 43.6244 59.3311 29.4331 62.8305Z" fill="#14142B"/>
<path d="M26.772 41.0245C24.4946 39.6015 19.8916 42.3019 16.259 47.0135C13.0444 51.1874 11.2983 56.164 13.0382 58.3564C16.7941 62.6018 25.0729 51.069 25.8879 49.0764C26.4206 48.9864 27.063 48.8359 27.7881 48.6374C27.7807 48.651 23.2258 55.6116 26.4551 58.3971C30.2702 61.6832 36.5958 54.6745 36.8178 54.4673C36.7648 54.688 35.3283 58.5857 37.856 59.1739C40.533 59.7966 43.3308 56.3995 43.3382 56.3983C42.8832 57.8151 43.6662 60.7313 47.3962 58.3798C50.543 56.2503 53.0794 52.9112 55.1251 50.0813H53.8205C53.8044 50.0961 50.5973 54.5092 48.5146 55.476C48.5109 55.476 48.1324 55.6486 47.9141 55.5068C47.6465 55.2861 47.6675 54.8779 47.9178 54.4723C47.9314 54.4501 55.9586 41.0837 55.9586 41.0837H52.1694C52.1694 41.0837 51.7588 41.752 51.7206 41.8025C51.6922 41.7766 51.633 41.6792 51.5936 41.6336C49.2409 38.5164 43.9264 43.3032 39.9165 48.8507C38.3751 50.9851 36.4096 53.3884 34.3751 55.1295C34.3751 55.1295 31.3627 57.7744 30.0705 55.8705C29.5994 55.0715 29.7437 53.91 30.0113 53.1442C31.5107 49.0492 34.0977 45.3414 37.0385 43.1046C37.8708 42.4918 38.7734 42.313 39.2186 42.5695C39.6477 42.8198 39.7155 43.4191 39.4467 43.8248C38.7808 43.7273 37.0323 44.3155 36.7586 46.3969C36.6785 47.0098 37.1963 47.5215 38.0077 47.4524C39.0669 47.3624 40.8894 44.9148 40.7944 42.9443C40.7537 42.1416 40.3037 41.387 39.6403 41.0195C38.6501 40.4486 37.1384 40.6028 36.1581 41.0516C34.8511 41.5239 32.7807 43.1712 31.5686 44.4511C30.0495 46.0603 27.4379 47.8445 26.6216 47.6485C27.0063 46.8482 29.0902 42.6484 26.772 41.0245ZM45.0546 47.4142C45.8586 46.3587 47.6885 44.2045 48.5109 43.3315C49.3334 42.4561 50.7871 42.0627 50.9992 43.0257C50.2483 44.3167 44.7069 54.3144 42.6415 55.3243C41.2815 56.1566 41.0386 55.2787 41.046 54.9051C41.0682 52.9531 44.4381 48.2256 45.0546 47.4142ZM24.3589 49.2206C24.2825 49.3353 22.2134 53.0616 19.8595 54.9051C18.5685 55.9137 16.2701 56.0987 17.4748 52.5363C18.1924 50.413 20.0346 47.7262 20.9766 46.4314C20.9927 46.4105 21.026 46.3846 21.0432 46.4179C21.8151 47.8914 23.3848 48.5942 24.4477 48.8988C24.5353 48.9259 24.4736 49.0443 24.3589 49.2206ZM26.4588 43.9074C26.2628 45.8618 25.4268 47.3723 25.2578 47.6744C25.2171 47.7508 25.1604 47.7471 25.0531 47.736C23.8965 47.6016 22.6388 46.8285 22.428 45.9C22.0975 44.3858 23.5266 43.0948 24.1321 42.7323C26.1456 41.5892 26.5106 43.3476 26.4588 43.9074Z" fill="#14142B"/>
<path d="M73.9208 50.9474C73.2833 49.9042 72.3794 49.7069 71.4472 49.7846C69.2709 49.972 65.933 52.3617 64.277 55.7748C63.4385 57.5085 63.0267 58.9586 62.7394 61.241C63.6752 60.2151 65.5791 58.5307 67.7407 57.6022C67.7407 57.6022 68.0366 55.4147 69.5335 53.4468C70.1007 52.6428 71.4016 51.2593 72.5163 51.6835C73.631 52.1101 73.2389 55.0029 71.7555 57.8562C70.6618 59.9635 68.986 62.0536 67.2857 63.5073C65.7875 64.7244 63.5618 66.1966 61.6247 65.0585C60.4015 64.3705 59.7775 62.9216 59.9095 61.0486C60.4927 55.739 63.457 50.5318 66.6506 46.0287C68.7024 43.1371 74.467 36.2788 79.9886 33.7831C81.128 33.2677 82.1588 33.1111 83.0614 33.4391C83.0577 33.4428 77.9849 36.1802 75.3955 41.2259C73.319 45.2679 75.1316 47.0003 76.8258 46.5638C82.9702 44.9719 85.5954 35.8189 85.022 34.063C86.4709 33.3306 89.3131 34.5686 90.2021 34.9447C92.0159 35.7141 96.7312 38.9127 98.3761 39.6846C99.1924 38.777 100.529 37.4207 101.28 36.7289L100.192 36.0902C98.3391 35.0569 97.328 34.5489 94.7829 33.153C89.4512 30.2319 84.3167 32.7695 84.3167 32.7695C83.1847 31.5944 81.6459 31.5168 79.4387 31.9323C75.3844 32.698 61.9872 39.7573 55.4705 57.1447C54.3965 60.0054 54.1313 64.2521 56.6357 66.7651C58.7689 68.8958 61.5963 68.4334 63.5926 67.6689C67.917 65.627 71.5927 61.495 73.7407 56.1817C74.2019 55.0424 74.7407 52.2766 73.9208 50.9474ZM76.9294 45.3751C76.1748 45.5761 74.8628 45.0656 76.0256 42.5625C77.5793 39.2148 80.6705 35.9965 83.8161 34.4551C83.9739 39.0434 80.0996 44.5256 76.9294 45.3751Z" fill="#14142B"/>
<path d="M114.141 35.9156C111.399 37.4027 108.548 38.3805 105.109 38.0402C104.15 39.0612 103.22 40.1253 102.363 41.224C107.201 42.3954 112.334 39.7233 115.183 37.2868C118.363 34.5617 119.746 31.6172 119.746 31.6172C119.746 31.6172 117.481 34.103 114.141 35.9156Z" fill="#14142B"/>
<path d="M62.2601 41.0781H58.6596L56.625 44.3729H60.228L62.2601 41.0781Z" fill="#14142B"/>
<path d="M110.472 58.8705C109.084 60.8323 106.704 64.0604 105.018 64.7559C104.515 64.9667 104.074 64.6794 104.389 64.0271C105.19 62.3785 112.496 50.1441 112.496 50.1441H108.65C108.468 50.4647 108.076 51.1182 108.076 51.1182C107.843 50.6928 107.74 50.4375 107.148 50.075C106.267 49.5349 104.832 49.7791 103.881 50.2945C99.7519 52.6028 96.7346 57.175 94.361 60.7348C94.361 60.7348 91.7888 64.7583 90.467 64.9938C89.5977 65.1504 89.462 64.0999 89.5422 63.3502C89.6951 61.8495 90.938 58.7607 91.9171 56.7311C93.9097 55.4154 96.1896 53.6743 98.2575 51.7803C102.752 47.6681 106.539 43.0182 107.091 41.9775C107.091 41.9775 106.494 42.0897 105.782 42.1107C102.328 46.7235 95.1107 53.4351 93.1131 54.4179C94.065 52.2341 100.2 41.8123 105.419 36.8208C105.419 36.8208 108.778 33.5162 109.853 33.4595C109.96 33.4546 110.259 33.531 110.243 33.9909C110.19 35.1118 108.92 37.2253 108.92 37.2253C108.92 37.2253 109.737 37.0736 110.274 36.9022C110.895 35.7777 111.589 34.515 111.334 33.0107C111.249 32.5372 110.884 32.182 110.409 32.0822C108.591 31.695 105.73 33.8269 105.73 33.8269C98.71 39.086 92.7814 46.6742 87.5976 57.0246C87.2191 57.3045 85.7715 57.6226 85.5249 57.4672C86.0354 56.466 86.6802 55.1034 87.0008 53.6287C87.06 53.2156 87.1081 52.7865 87.1081 52.3623C87.1081 51.4659 86.8788 50.6065 86.039 50.0257C85.044 49.546 83.8146 49.7655 82.9922 50.128C79.2856 51.6015 76.5124 55.2292 74.5161 58.2256C73.4433 60.122 72.3706 62.1603 72.0722 64.4908C71.865 66.3243 72.2916 67.5019 73.3755 68.095C74.4914 68.6289 75.8971 68.0654 76.4495 67.7978C80.203 65.9038 82.8245 62.1109 84.8972 58.6374C85.0662 58.6312 86.3609 58.5647 87.0058 58.3674C86.954 58.5166 86.5064 59.8273 86.5064 59.8273C85.1944 63.4981 84.5902 65.9963 85.827 67.4772C87.5952 69.5722 90.5237 67.4045 92.9047 64.5462C92.3979 68.0753 94.3252 68.5056 95.6631 68.2541C96.9566 68.0074 99.0947 66.1714 99.9344 65.3206C99.6434 66.8644 99.9652 68.7214 102.212 68.2454C106.031 67.4353 110.779 60.381 111.755 58.8705H110.472ZM78.6074 64.4476C76.8614 65.307 76.6012 63.8348 76.5839 63.3822C76.5173 61.5351 78.8614 57.6645 80.4964 55.6078H80.5001C81.1845 57.1392 82.621 57.9839 83.674 58.3748C82.8947 60.0308 80.4545 63.5314 78.6074 64.4476ZM84.3251 57.2847C84.2166 57.3526 82.1808 56.6386 81.8861 54.99C81.5778 53.2871 82.9675 52.1293 83.6753 51.747C84.9897 51.0405 85.8492 51.4154 85.8714 52.7853C85.8972 54.3106 84.9429 56.2638 84.3251 57.2847ZM98.7112 64.6585C98.5263 64.7139 97.5447 65.0493 97.5867 63.7904C97.6557 61.7484 101.551 55.133 105.467 52.1244C105.954 51.789 107.196 51.1971 107.32 52.2427C107.35 52.4807 105.648 55.0812 104.902 56.3439C103.438 58.8347 100.325 64.1628 98.7112 64.6585Z" fill="#14142B"/>
<path d="M111.872 64.5703H111.864C110.79 64.5703 109.914 65.4446 109.914 66.537C109.914 67.648 110.788 68.51 111.864 68.51C112.949 68.51 113.804 67.648 113.804 66.537C113.804 65.4458 112.949 64.5703 111.872 64.5703ZM111.872 68.2054C110.999 68.2054 110.293 67.4717 110.293 66.537C110.293 65.6184 110.999 64.8761 111.864 64.8761H111.872C112.746 64.8761 113.444 65.6197 113.444 66.5457C113.444 67.4717 112.746 68.214 111.872 68.2054Z" fill="#14142B"/>
<path d="M112.222 66.6062V66.5865C112.458 66.5162 112.649 66.3411 112.649 66.0538C112.649 65.8442 112.579 65.6938 112.449 65.5988C112.317 65.5026 112.098 65.4336 111.766 65.4336C111.505 65.4336 111.328 65.4595 111.145 65.4878V67.6778H111.495V66.7332H111.741C112.019 66.7332 112.159 66.8393 112.21 67.1204C112.256 67.409 112.307 67.6087 112.359 67.6778H112.727C112.691 67.6087 112.64 67.478 112.585 67.1377C112.545 66.8159 112.413 66.6395 112.222 66.6062ZM111.751 66.4657H111.497V65.7221C111.558 65.7135 111.638 65.7049 111.751 65.7049C112.143 65.7049 112.281 65.896 112.281 66.0896C112.281 66.3596 112.039 66.4657 111.751 66.4657Z" fill="#14142B"/>
</g>
<defs>
<clipPath id="clip0_4736_119121">
<rect width="120" height="100" fill="white"/>
</clipPath>
</defs>
</svg>
