<svg width="120" height="100" viewBox="0 0 120 100" fill="none" xmlns="http://www.w3.org/2000/svg">
<path d="M10 73H15.1952C18.2373 73 19.8208 74.4446 19.8208 76.82C19.8208 79.4175 18.1122 80.6955 14.7229 80.6955H10V73ZM14.32 79.2647C16.7093 79.2647 17.89 78.7369 17.89 76.7366C17.89 75.1392 17.001 74.3891 15.2091 74.3891H11.8892V79.2647H14.32Z" fill="#14142B"/>
<path d="M24.1695 73H25.9753L30.6148 80.7094H28.5034L27.5449 79.0147H22.447L21.4885 80.7094H19.6133L24.1695 73ZM26.7809 77.6117L24.9751 74.403L23.2388 77.6117H26.7809Z" fill="#14142B"/>
<path d="M31.7402 73H33.6294V76.1115L38.13 73H40.8387L35.5185 76.5699L41.436 80.7094H38.4773L33.6294 77.2367V80.7094H31.7402V73Z" fill="#14142B"/>
<path d="M47.381 80.6938H45.5057V74.3735H41.7969V72.9844H51.1176V74.3735H47.381V80.6938Z" fill="#14142B"/>
<path d="M52.5198 73H59.4513C60.6876 73 61.2571 73.4167 61.2571 74.5002V76.3199C61.2571 77.3756 60.6876 77.7923 59.4513 77.7923H58.3956L62.0489 80.7094H59.354L56.1314 77.7923H54.3672V80.7094H52.5059V73H52.5198ZM54.3811 74.3196V76.4588H58.6595C59.229 76.4588 59.5207 76.3477 59.5207 75.8337V74.9447C59.5207 74.4308 59.229 74.3196 58.6595 74.3196H54.3811Z" fill="#14142B"/>
<path d="M64.9378 73H70.8969C72.411 73 72.8972 73.3473 72.8972 74.8197V78.8758C72.8972 80.3343 72.411 80.6955 70.8969 80.6955H64.9378C63.4098 80.6955 62.9375 80.3343 62.9375 78.8758V74.8197C62.9375 73.3473 63.4376 73 64.9378 73ZM71.022 79.2231V74.4169H64.8128V79.2231H71.022Z" fill="#14142B"/>
<path d="M74.6191 73H75.911L82.4536 78.1118V73H84.1482V80.7094H82.8564L76.3416 75.5142V80.7094H74.633V73H74.6191Z" fill="#14142B"/>
<path d="M86.5664 73H88.4417V80.7094H86.5664V73Z" fill="#14142B"/>
<path d="M92.6504 74.4169V79.2231H97.7067V77.584L99.5958 77.959V78.8758C99.5958 80.3204 99.1097 80.6955 97.5678 80.6955H92.7893C91.2475 80.6955 90.7891 80.2927 90.7891 78.8758V74.8197C90.7891 73.375 91.2613 73 92.7893 73H97.5956C99.1235 73 99.6236 73.3612 99.6236 74.8197V75.5698L97.7345 75.8476V74.4307H92.6504V74.4169Z" fill="#14142B"/>
<path d="M102.999 74.3869V76.0121H107.999C109.527 76.0121 110 76.3733 110 77.8318V78.8875C110 80.3322 109.527 80.7072 107.999 80.7072H102.999C101.471 80.7072 100.971 80.3183 100.971 78.8875V78.6653L102.651 78.3597V79.2765H108.319V77.5123H103.332C101.818 77.5123 101.304 77.1512 101.304 75.6926V74.8314C101.304 73.3729 101.818 73.0117 103.332 73.0117H107.902C109.319 73.0117 109.93 73.3451 109.93 74.6925V74.8731L108.305 75.2203V74.4008H102.999V74.3869Z" fill="#14142B"/>
<path d="M71.5205 19.1562H25.3613V30.6995C31.7372 30.6995 36.9046 35.8669 36.9046 42.2427C36.9046 48.6186 31.7372 53.786 25.3613 53.786V65.3292H71.5205C84.2723 65.3292 94.5932 54.9945 94.5932 42.2566C94.5932 29.4771 84.2584 19.1562 71.5205 19.1562ZM59.9772 53.7721C53.6014 53.7721 48.434 48.6047 48.434 42.2288C48.434 35.853 53.6014 30.6856 59.9772 30.6856C66.3531 30.6856 71.5205 35.853 71.5205 42.2288C71.5205 48.6047 66.3531 53.7721 59.9772 53.7721Z" fill="#14142B"/>
<path d="M88.4414 62.2587C88.4414 60.5223 89.8583 59.2305 91.5252 59.2305C93.1782 59.2305 94.595 60.5084 94.595 62.2587C94.595 64.0228 93.1782 65.3007 91.5252 65.3007C89.8583 65.3146 88.4414 64.0228 88.4414 62.2587ZM91.5252 64.8007C92.9004 64.8007 93.9838 63.7311 93.9838 62.2587C93.9838 60.8279 92.9004 59.7305 91.5252 59.7305C90.1361 59.7305 89.0526 60.814 89.0526 62.2587C89.0526 63.7311 90.1361 64.8007 91.5252 64.8007ZM90.8862 64.0228H90.3583V60.5223H91.6919C92.5114 60.5223 92.9281 60.8279 92.9281 61.5224C92.9281 62.1475 92.5392 62.4254 92.0252 62.4809L93.0254 64.0228H92.4281L91.5113 62.5087H90.9001V64.0228H90.8862ZM91.5252 62.0642C91.9836 62.0642 92.3725 62.0364 92.3725 61.4947C92.3725 61.0641 91.9836 60.9807 91.6085 60.9807H90.8862V62.0642H91.5252Z" fill="#14142B"/>
</svg>
