<svg width="120" height="100" viewBox="0 0 120 100" fill="none" xmlns="http://www.w3.org/2000/svg">
<path d="M22.7847 22.1641H3.25419C1.45951 22.1641 0 23.6222 0 25.4196V44.95C0 46.7487 1.45951 48.2042 3.25419 48.2042H22.7847C24.5834 48.2042 26.0389 46.7487 26.0389 44.95V25.4196C26.0402 23.6222 24.5834 22.1641 22.7847 22.1641ZM13.0194 41.6958C9.42474 41.6958 6.50972 38.7808 6.50972 35.1861C6.50972 31.5874 9.42474 28.6751 13.0194 28.6751C16.6141 28.6751 19.5305 31.5874 19.5305 35.1861C19.5305 38.7808 16.6141 41.6958 13.0194 41.6958Z" fill="#14142B"/>
<path d="M34.1738 29.2228C34.2553 32.6572 35.7695 34.4692 38.5831 34.4692C40.7209 34.4692 42.0456 33.3596 42.5597 31.1162H44.1006C43.4784 34.118 41.5048 35.7405 38.5564 35.7405C34.8789 35.7405 32.5527 33.1179 32.5527 29.0331C32.5527 24.895 35.0151 22 38.5043 22C42.0189 22 44.2382 24.704 44.2382 29.0051V29.2228H34.1738ZM42.6398 27.9515C42.4502 25.0579 40.8812 23.2993 38.4736 23.2993C35.6894 23.2993 34.4716 25.4905 34.1738 27.9515H42.6398Z" fill="#14142B"/>
<path d="M56.9722 35.2823C56.5943 35.4172 56.1871 35.472 55.7277 35.472C54.132 35.472 54.0505 34.3089 54.0505 33.1205C52.8608 34.9592 51.4012 35.743 49.1285 35.743C46.4498 35.743 44.8555 34.4171 44.8555 32.0656C44.8555 29.7114 46.4779 28.36 49.6974 28.0342L51.8873 27.8179C53.483 27.6283 53.9704 27.2771 53.9704 26.1688C53.9704 23.8974 52.6191 23.3285 50.564 23.3285C48.2913 23.3285 47.2096 24.2486 46.9933 26.3851H45.4791C45.6139 23.5729 47.4807 22.0039 50.7523 22.0039C54.2949 22.0039 55.5127 23.438 55.5127 26.5747V32.334C55.5127 33.9831 55.5942 34.174 56.378 34.174C56.5957 34.174 56.6758 34.1473 56.9736 34.0659V35.2823H56.9722ZM53.9704 28.3053C53.5111 28.7112 53.0517 28.8194 51.7257 29.0077L50.4011 29.1973C48.7506 29.4136 46.5607 29.873 46.5607 31.9561C46.5607 33.4984 47.669 34.4718 49.5091 34.4718C51.9714 34.4718 53.9717 32.9041 53.9717 30.4151V28.3053H53.9704Z" fill="#14142B"/>
<path d="M62.5187 35.743C59.1377 35.743 57.2442 34.1473 57.1641 31.1455H58.705C58.8946 33.4436 60.1378 34.4718 62.5187 34.4718C64.682 34.4718 66.1161 33.4703 66.1161 31.9294C66.1161 30.1173 63.9796 29.7394 62.5454 29.3869C60.4089 28.9008 57.5433 28.547 57.5433 25.6827C57.5433 23.41 59.3273 22.0039 62.2477 22.0039C65.359 22.0039 67.0348 23.3846 67.2511 26.1421H65.7102C65.4685 24.1952 64.4389 23.3285 62.1942 23.3285C60.246 23.3285 59.1377 24.1137 59.1377 25.4918C59.1377 27.3585 61.4104 27.5735 62.8432 27.9261C65.0078 28.4402 67.6838 29.0624 67.6838 31.7945C67.6838 34.146 65.6033 35.743 62.5187 35.743Z" fill="#14142B"/>
<path d="M74.2593 35.8502C73.5289 37.7971 72.9614 40.2862 70.4176 40.2862C69.9035 40.2862 69.5269 40.2595 69.0115 40.178V38.7986C69.6351 38.9068 69.8247 38.9335 70.1745 38.9335C71.0946 38.9335 71.797 38.3112 72.2576 37.0413L72.932 35.2827L67.7402 22.3555H69.4708L73.7452 33.4987L77.7472 22.3555H79.3696L74.2593 35.8502Z" fill="#14142B"/>
<path d="M47.871 60.335V45.0282L42.8675 60.335H40.297L34.8889 45.1631V60.335H32.1582V42.3242H36.5648L41.595 56.8752L46.4649 42.3242H50.8728V60.335H47.871Z" fill="#14142B"/>
<path d="M65.749 60.3587C64.8851 60.575 64.4524 60.6565 63.8836 60.6565C62.639 60.6565 61.9367 60.1424 61.7737 59.1155C60.5012 60.1958 59.0951 60.6565 57.1482 60.6565C54.4428 60.6565 52.7656 59.1702 52.7656 56.7894C52.7656 54.5447 54.1717 53.2454 57.0133 52.8675L58.6077 52.6525C61.4212 52.3 61.6629 52.1384 61.6629 50.9754C61.6629 49.596 60.8243 48.9737 58.9589 48.9737C57.0921 48.9737 56.2815 49.5679 56.0652 51.2985H53.3331C53.6042 48.3528 55.5244 46.8906 59.067 46.8906C62.7726 46.8906 64.5032 48.27 64.4764 50.5427L64.395 57.4383C64.395 58.2235 64.5566 58.4118 65.1254 58.4118H65.3684C65.4499 58.4118 65.5848 58.3864 65.7463 58.357V60.3587H65.749ZM61.6108 53.7889C60.9071 54.2215 60.7442 54.1948 58.5823 54.4913C56.4471 54.7343 55.7434 55.3285 55.7434 56.6545C55.7434 57.9244 56.582 58.6281 58.0949 58.6281C60.6107 58.6281 61.6108 57.7094 61.6108 55.3285V53.7889Z" fill="#14142B"/>
<path d="M74.0805 49.7581C73.5664 49.7314 73.3768 49.7047 73.0803 49.7047C72.0254 49.7047 71.1588 50.0279 70.5112 50.6782C69.5658 51.6249 69.2933 52.5717 69.2933 55.1141V60.3339H66.4277V47.2704H69.1585L69.1318 49.893C70.1333 47.8647 71.5127 46.9727 73.5677 46.9727C73.7573 46.9727 73.8388 46.9994 74.0818 46.9994V49.7581H74.0805Z" fill="#14142B"/>
<path d="M83.8717 60.3311L79.8964 54.0297L78.1378 55.6522V60.3311H75.3242V42.3203H78.1378V52.597L83.3575 47.269H86.9015L81.898 52.0561L87.3889 60.3311H83.8717Z" fill="#14142B"/>
<path d="M90.3103 54.4906C90.3917 57.1946 91.663 58.6554 93.9077 58.6554C95.5314 58.6554 96.3967 57.925 97.0176 56.2759H99.7778C99.1007 59.0881 96.9095 60.7372 93.8542 60.7372C89.9885 60.7372 87.418 58.0612 87.418 53.9751C87.418 49.865 90.0686 46.918 93.7474 46.918C97.5611 46.918 99.9674 49.7569 99.9674 54.1928V54.4906H90.3103ZM97.0737 52.5971C96.8841 50.4058 95.6409 49.0545 93.7194 49.0545C91.7992 49.0545 90.6374 50.2977 90.3397 52.5971H97.0737Z" fill="#14142B"/>
<path d="M107.704 60.3583C106.839 60.4398 106.513 60.4665 105.783 60.4665C103.809 60.4665 102.782 59.9804 102.43 58.8174C102.213 58.1697 102.213 57.7638 102.213 55.5992V49.406H100.023V47.2962H102.213V43.3477H105.08V47.2962H107.704V49.3793H105.08V56.2482C105.08 57.872 105.27 58.1417 106.649 58.1417H107.163C107.326 58.1417 107.515 58.115 107.706 58.0883V60.3583H107.704Z" fill="#14142B"/>
<path d="M114.086 60.7138C110.38 60.7138 108.405 59.1995 108.217 56.171H111.001C111.191 57.8749 112.164 58.632 114.111 58.632C115.842 58.632 116.95 57.9016 116.95 56.7372C116.95 55.737 116.436 55.3311 113.84 54.7636C111.567 54.1694 108.512 53.8449 108.512 50.8164C108.512 48.3554 110.487 46.8945 113.813 46.8945C117.248 46.8945 119.088 48.3006 119.331 51.0874H116.599C116.354 49.5986 115.517 49.003 113.758 49.003C112.244 49.003 111.379 49.5451 111.379 50.5466C111.379 51.5468 111.838 51.7631 114.732 52.4107C117.005 52.8981 119.789 53.5191 119.789 56.4154C119.791 59.0914 117.628 60.7138 114.086 60.7138Z" fill="#14142B"/>
<path d="M117.984 44.8127C116.856 44.8127 115.967 43.8967 115.967 42.7964C115.967 41.668 116.855 40.7773 117.984 40.7773C119.085 40.7773 120.001 41.668 120.001 42.7964C120.001 43.898 119.085 44.8127 117.984 44.8127ZM117.984 41.1446C117.067 41.1446 116.334 41.8777 116.334 42.7964C116.334 43.7124 117.067 44.4468 117.984 44.4468C118.901 44.4468 119.635 43.7124 119.635 42.7964C119.635 41.8777 118.902 41.1446 117.984 41.1446ZM118.499 43.7952C118.453 43.695 118.444 43.667 118.434 43.5201C118.408 43.0621 118.344 42.9993 117.986 42.9993H117.526V43.8059H117.087V41.7882H118.131C118.636 41.7882 118.883 41.9805 118.883 42.3557C118.883 42.576 118.784 42.7309 118.589 42.8324C118.763 42.9339 118.82 43.0247 118.847 43.2824L118.864 43.4653C118.892 43.6763 118.901 43.7057 119.002 43.8059L118.499 43.7952ZM118.03 42.126H117.516V42.6775H117.984C118.322 42.6775 118.442 42.6041 118.442 42.3918C118.444 42.1995 118.333 42.126 118.03 42.126Z" fill="#14142B"/>
<path d="M36.0378 76.0323C33.6797 76.0323 32.3069 74.8866 32.2949 72.9009H33.8265C33.8666 74.1802 34.6398 74.8198 36.118 74.8198C37.3304 74.8198 38.0235 74.3137 38.0235 73.4204C38.0235 72.7674 37.5962 72.4082 36.4772 72.1278L35.9577 71.9943C35.5451 71.8874 34.9856 71.7552 34.5583 71.6083C33.9721 71.408 33.6129 71.2478 33.3325 71.0221C32.8397 70.6349 32.5994 70.0887 32.5994 69.3837C32.5994 67.8254 33.892 66.7852 35.903 66.7852C37.9407 66.7852 39.1532 67.7853 39.2079 69.596H37.7284C37.6095 68.5304 37.01 68.023 35.7975 68.023C34.7306 68.023 34.0909 68.477 34.0909 69.2622C34.0909 69.9285 34.4515 70.1542 35.7828 70.4747L36.3557 70.6082C37.6883 70.9273 38.2478 71.1276 38.7138 71.5149C39.2733 71.9675 39.5538 72.5537 39.5538 73.2735C39.5564 74.9787 38.2104 76.0323 36.0378 76.0323Z" fill="#14142B"/>
<path d="M40.8984 66.918H42.3112V68.3174H40.8984V66.918ZM40.8984 69.4097H42.3112V75.8446H40.8984V69.4097Z" fill="#14142B"/>
<path d="M51.9148 75.8455V71.9023C51.9148 70.8233 51.6077 70.4374 50.7691 70.4374C49.7569 70.4374 49.3563 70.9969 49.3563 72.3963V75.8468H47.9448V71.8221C47.9448 70.81 47.6391 70.4361 46.8793 70.4361C45.8671 70.4361 45.3997 71.0623 45.3997 72.395V75.8455H43.9883V69.4105H45.3329V70.3172C45.9058 69.5588 46.492 69.2383 47.3586 69.2383C48.2119 69.2383 48.8115 69.5975 49.144 70.3306C49.6901 69.5841 50.3284 69.2383 51.2217 69.2383C51.9682 69.2383 52.6345 69.5441 52.9937 70.0635C53.2474 70.424 53.3396 70.81 53.3396 71.4616V75.8455H51.9148Z" fill="#14142B"/>
<path d="M58.4788 76.0034C57.5601 76.0034 56.8537 75.6696 56.3877 75.0046V78.2281H54.9883V69.4083H56.3076V70.2615C56.787 69.5685 57.492 69.2227 58.4121 69.2227C60.1974 69.2227 61.3565 70.5807 61.3565 72.6598C61.3565 74.6841 60.2241 76.0034 58.4788 76.0034ZM58.1196 70.367C57.0006 70.367 56.3343 71.207 56.3343 72.5917C56.3343 74.0298 56.9873 74.8697 58.1463 74.8697C59.252 74.8697 59.9183 74.0298 59.9183 72.6584C59.9183 71.2604 59.2386 70.367 58.1196 70.367Z" fill="#14142B"/>
<path d="M64.1647 66.9727H62.752V75.8459H64.1647V66.9727Z" fill="#14142B"/>
<path d="M69.133 75.7249C68.667 76.9641 68.5068 77.3366 68.2263 77.6438C67.8404 78.1098 67.4011 78.2967 66.7214 78.2967C66.4424 78.2967 66.2421 78.2834 65.7493 78.2166V77.0308C66.1619 77.0976 66.3088 77.111 66.4824 77.111C67.0019 77.111 67.4278 76.5515 67.5881 75.6461L65.123 69.4102H66.6814L68.3866 74.3669L70.0264 69.4102H71.5179L69.133 75.7249Z" fill="#14142B"/>
<path d="M81.8115 75.8459V71.8626H77.7614V75.8459H76.2031V66.9727H77.7614V70.4899H81.8115V66.9727H83.3712V75.8459H81.8115Z" fill="#14142B"/>
<path d="M88.1229 76.0435C86.1506 76.0435 84.8594 74.7108 84.8594 72.6331C84.8594 70.554 86.152 69.2227 88.1363 69.2227C90.1086 69.2227 91.3611 70.542 91.3611 72.6331C91.3611 74.7242 90.1085 76.0435 88.1229 76.0435ZM88.1096 70.3403C86.9906 70.3403 86.2975 71.2056 86.2975 72.6317C86.2975 74.0699 86.9639 74.9365 88.1363 74.9365C89.2553 74.9365 89.9216 74.0712 89.9216 72.6184C89.9216 71.1936 89.2419 70.3403 88.1096 70.3403Z" fill="#14142B"/>
<path d="M96.9131 75.8455V72.1146C96.9131 70.8487 96.6073 70.4361 95.6873 70.4361C95.061 70.4361 94.5282 70.7419 94.3012 71.2626C94.1556 71.5951 94.1009 71.9423 94.1009 72.634V75.8455H92.6895V69.4105H94.0221V70.3573C94.595 69.5708 95.2079 69.2383 96.1666 69.2383C96.9799 69.2383 97.6983 69.5841 98.0321 70.157C98.2845 70.5576 98.3379 70.9168 98.3379 71.7433V75.8468H96.9131V75.8455Z" fill="#14142B"/>
<path d="M101.053 72.9653C101.093 74.2979 101.719 75.0163 102.825 75.0163C103.624 75.0163 104.051 74.6558 104.357 73.8439H105.716C105.384 75.23 104.305 76.0432 102.798 76.0432C100.893 76.0432 99.627 74.7239 99.627 72.7116C99.627 70.6859 100.933 69.2344 102.745 69.2344C104.622 69.2344 105.81 70.6325 105.81 72.8184V72.9653H101.053ZM104.385 72.0332C104.291 70.9543 103.678 70.2879 102.733 70.2879C101.788 70.2879 101.213 70.9009 101.068 72.0332H104.385Z" fill="#14142B"/>
<path d="M109.537 76.0315C107.712 76.0315 106.74 75.285 106.646 73.7935H108.019C108.113 74.6334 108.592 75.0059 109.551 75.0059C110.403 75.0059 110.949 74.6467 110.949 74.0725C110.949 73.5798 110.697 73.3808 109.417 73.1004C108.298 72.8067 106.793 72.6478 106.793 71.1549C106.793 69.9424 107.767 69.2227 109.405 69.2227C111.097 69.2227 112.004 69.9157 112.123 71.2884H110.777C110.658 70.5553 110.244 70.2615 109.379 70.2615C108.632 70.2615 108.206 70.5286 108.206 71.0213C108.206 71.5141 108.433 71.6209 109.858 71.94C110.977 72.1804 112.35 72.4862 112.35 73.9123C112.348 75.2316 111.283 76.0315 109.537 76.0315Z" fill="#14142B"/>
<path d="M116.744 75.857C116.318 75.8971 116.158 75.9105 115.799 75.9105C114.825 75.9105 114.319 75.6701 114.147 75.0972C114.04 74.7781 114.04 74.5778 114.04 73.5122V70.461H112.961V69.4208H114.04V67.4766H115.453V69.4208H116.745V70.4477H115.453V73.8314C115.453 74.6299 115.546 74.7647 116.226 74.7647H116.478C116.558 74.7647 116.652 74.7514 116.745 74.738V75.857H116.744Z" fill="#14142B"/>
<path d="M119.751 74.1641H118.02V75.8426H119.751V74.1641Z" fill="#14142B"/>
</svg>
