<svg width="120" height="100" viewBox="0 0 120 100" fill="none" xmlns="http://www.w3.org/2000/svg">
<path d="M78.6436 50.1039L78.0556 59.2513H83.593L84.1893 49.9582C84.4541 45.7369 81.4481 45.4267 79.4623 45.2196C79.3281 45.2084 78.2721 45.123 76.8249 45.123C76.4508 45.123 76.0515 45.1254 75.6368 45.141C72.1902 45.2575 67.9524 45.7447 67.9106 45.7525L67.8114 45.767L66.9426 59.2513H72.5025L73.18 48.3051C73.18 48.3051 75.4364 48.0162 76.7089 48.0934C77.9791 48.165 78.7397 48.5603 78.6396 50.0276" fill="#14142B"/>
<path d="M16.3832 40H16.2636L16.2547 40.121L15.7407 46.7081H7.04867L7.47679 41.2232C7.49163 40.047 6.48632 40 5.98716 40H5.57918H5.5813H1.50214L1.49324 40.121L0.0122987 59.0485L0 59.1897H6.07261L6.08258 59.0688L6.73632 50.7088H15.4284L14.7746 59.0488L14.7657 59.1899H20.8148L20.8228 59.069L22.3027 40.1389L22.314 40H16.3832Z" fill="#14142B"/>
<path d="M24.3123 45.2271H24.1917L24.1815 45.346L23.1119 59.1897H23.0996H23.2417H28.9233H29.045H29.0531L30.1203 45.3673L30.1305 45.2271H29.9895H24.3123Z" fill="#14142B"/>
<path d="M29.2196 40H24.6167L24.6086 40.1389L24.3518 43.5226L24.3406 43.6615H30.2779L30.2849 43.5416C30.2849 43.5416 30.4302 41.576 30.4528 41.2232C30.5056 40.4044 30.1742 40 29.2196 40Z" fill="#14142B"/>
<path d="M42.2363 50.8957L40.1128 50.0109C38.6249 49.4163 37.5036 48.9792 37.6995 48.37C37.8102 48.0261 38.4909 47.8011 40.5297 47.8011C42.3656 47.8011 44.407 48.0228 46.7703 48.4632L46.9068 48.4878L46.9202 48.3557L47.1793 45.7112L47.1916 45.5946L47.071 45.571C46.1536 45.393 43.6807 44.9795 40.6251 44.9149C40.4165 44.9113 40.207 44.9092 40.0017 44.9092C38.8295 44.9092 37.7239 44.9795 36.7243 45.114C34.8307 45.3751 31.6301 46.2015 31.4698 48.8269C31.3052 51.5184 34.5411 52.69 36.5167 53.5074L38.158 54.1537C40.0265 54.8984 40.9135 55.1685 40.8764 55.7183C40.8393 56.2403 40.1302 56.3711 38.4476 56.3711C38.2356 56.3711 38.0159 56.3677 37.7871 56.3633C35.6592 56.3184 32.66 55.8818 31.5395 55.689L31.3987 55.6654L31.392 55.8009L31.2094 58.6583L31.2024 58.7769L31.3243 58.7948C31.3466 58.7982 33.575 59.1499 38.3244 59.2753C38.6041 59.2831 38.8834 59.2886 39.162 59.2886C42.6188 59.2886 46.833 58.7521 47.2938 55.8903C47.7198 53.2672 44.9416 52.0979 42.2356 50.8949L42.2363 50.8957Z" fill="#14142B"/>
<path d="M65.8005 53.3241C66.9908 46.6017 60.9924 45.2912 59.5856 45.0807C59.0672 45.0124 58.5103 44.9665 57.9039 44.9564L57.8352 44.9587C51.8694 45.0651 49.525 48.1084 48.6052 50.3348C48.5375 50.5028 48.3155 51.1044 48.2154 51.8257C48.2074 51.9199 48.1974 52.0151 48.1894 52.1169C48.1826 52.1639 48.1815 52.2098 48.1771 52.2547C48.0441 54.3132 48.619 57.7754 53.6324 58.9636C53.9072 59.0275 54.1914 59.0859 54.4923 59.1385C55.5279 59.2896 56.3318 59.4599 58.3356 59.4599C61.7349 59.4599 63.9182 58.9636 64.8514 58.695C64.9483 58.0723 65.1512 56.7987 65.3069 55.8186C64.8482 55.9196 62.0778 56.5075 59.0538 56.5075C58.959 56.5075 58.8679 56.5041 58.7763 56.4997C54.5711 56.3596 53.734 54.3101 53.7293 53.3692C53.7293 53.3692 53.727 53.3513 53.7236 53.3243H65.8003L65.8005 53.3241ZM53.9581 50.6874C54.2208 49.2178 55.3625 47.7238 57.7879 47.7114C61.3157 47.7404 61.0846 50.6874 61.0846 50.6874H53.9581Z" fill="#14142B"/>
<path d="M96.2815 50.8957L94.1579 50.0109C92.6714 49.4163 91.5501 48.9792 91.745 48.37C91.8542 48.0261 92.5374 47.8011 94.5741 47.8011C96.409 47.8011 98.4535 48.0228 100.817 48.4632L100.955 48.4878L100.968 48.3557L101.226 45.7112L101.238 45.5946L101.118 45.571C100.198 45.393 97.7275 44.9795 94.6729 44.9149C94.4611 44.9113 94.2503 44.9092 94.0463 44.9092C92.8731 44.9092 91.7696 44.9795 90.77 45.114C88.8764 45.3751 85.6743 46.2015 85.5155 48.8269C85.3507 51.5184 88.5878 52.69 90.5637 53.5074L92.2024 54.1537C94.0722 54.8984 94.9584 55.1685 94.9198 55.7183C94.8837 56.2403 94.1736 56.3711 92.492 56.3711C92.2813 56.3711 92.0626 56.3677 91.8315 56.3633C89.7081 56.3184 86.7057 55.8818 85.5865 55.689L85.4466 55.6654L85.4366 55.8009L85.2563 58.6583L85.2483 58.7769L85.3679 58.7948C85.3906 58.7982 87.6243 59.1499 92.3695 59.2753C92.649 59.2831 92.9295 59.2886 93.2079 59.2886C96.6647 59.2886 100.879 58.7521 101.342 55.8903C101.765 53.2672 98.9877 52.0979 96.2815 50.8949V50.8957Z" fill="#14142B"/>
<path d="M119.845 53.3241C121.035 46.6017 115.038 45.2912 113.632 45.0807C113.113 45.0124 112.557 44.9665 111.951 44.9564L111.882 44.9587C105.917 45.0651 103.572 48.1084 102.652 50.3348C102.582 50.5028 102.36 51.1044 102.264 51.8257C102.251 51.9199 102.241 52.0151 102.231 52.1169C102.228 52.1639 102.223 52.2098 102.223 52.2547C102.089 54.3132 102.663 57.7754 107.674 58.9636C107.951 59.0275 108.235 59.0859 108.54 59.1385C109.573 59.2896 110.378 59.4599 112.38 59.4599C115.78 59.4599 117.964 58.9636 118.894 58.695C118.993 58.0723 119.196 56.7987 119.351 55.8186C118.892 55.9196 116.12 56.5075 113.099 56.5075C113.002 56.5075 112.913 56.5041 112.821 56.4997C108.616 56.3596 107.78 54.3101 107.774 53.3692C107.774 53.3692 107.771 53.3513 107.77 53.3243H119.844L119.845 53.3241ZM108.005 50.6874C108.267 49.2178 109.41 47.7238 111.833 47.7114C115.362 47.7404 115.13 50.6874 115.13 50.6874H108.005Z" fill="#14142B"/>
</svg>
