<svg width="120" height="100" viewBox="0 0 120 100" fill="none" xmlns="http://www.w3.org/2000/svg">
<g clip-path="url(#clip0_53_9)">
<path d="M12.699 33C16.5109 33 19.5798 34.2453 21.908 36.7384C24.2363 39.2315 25.4004 42.4582 25.4004 46.4208C25.4004 50.3834 24.2313 53.459 21.8907 55.9253C19.55 58.394 16.4886 59.6271 12.7015 59.6271C8.9143 59.6271 5.82067 58.394 3.4924 55.9253C1.16413 53.459 0 50.2908 0 46.4208C0 42.5508 1.16909 39.2608 3.50974 36.7555C5.84792 34.2526 8.91182 33 12.699 33ZM5.67949 46.4208C5.67949 48.9846 6.29376 51.0439 7.52477 52.5987C8.75578 54.1535 10.4797 54.9309 12.699 54.9309C14.9183 54.9309 16.5827 54.1657 17.836 52.6353C19.0893 51.1048 19.7185 49.0357 19.7185 46.4232C19.7185 43.8107 19.0968 41.5589 17.8558 40.0162C16.6124 38.4736 14.8836 37.7035 12.6643 37.7035C10.445 37.7035 8.7855 38.4736 7.54458 40.0162C6.30119 41.5589 5.68197 43.6962 5.68197 46.4232L5.67949 46.4208Z" fill="#14142B"/>
<path d="M38.793 40.121C39.2264 40.121 39.6004 40.1795 39.915 40.2989V44.9976C39.3602 44.8781 38.7459 44.8197 38.0697 44.8197C34.6912 44.8197 33.0045 46.7888 33.0045 50.7295V59.0252H27.8674V40.6182H32.7518V44.0349H32.8237C33.3314 42.8481 34.1315 41.8976 35.2287 41.186C36.326 40.4744 37.5149 40.1186 38.793 40.1186V40.121Z" fill="#14142B"/>
<path d="M49.6986 40.121C55.1502 40.1454 57.8748 41.8879 57.8748 45.3534V55.1064C57.8748 56.9098 58.0928 58.2161 58.5262 59.0227H53.3149C53.1217 58.4525 53.0003 57.8603 52.9532 57.2437C51.4324 58.762 49.3345 59.5223 46.657 59.5223C44.7027 59.5223 43.1522 59.0349 42.0079 58.0625C40.8611 57.0902 40.2889 55.7376 40.2889 54.0049C40.2889 52.2721 40.8314 51.0146 41.9163 50.0885C43.0259 49.1162 45.0396 48.4996 47.9574 48.2364C50.0305 48.0219 51.3457 47.7563 51.9006 47.4346C52.4554 47.1153 52.7328 46.6231 52.7328 45.9578C52.7328 45.1267 52.4802 44.5102 51.9724 44.1056C51.4646 43.7035 50.62 43.5012 49.4385 43.5012C48.3537 43.5012 47.5338 43.7205 46.979 44.1592C46.4242 44.5979 46.0972 45.3046 46.0006 46.277H40.8636C40.9849 44.2591 41.8271 42.7287 43.3974 41.6856C44.9653 40.6426 47.0632 40.1186 49.6937 40.1186L49.6986 40.121ZM45.4309 53.7904C45.4309 55.3574 46.4787 56.1397 48.5791 56.1397C51.3284 56.1153 52.7155 54.7287 52.7402 51.9748V50.0179C52.3291 50.4224 51.2937 50.7173 49.6293 50.9074C48.1828 51.0731 47.1202 51.3656 46.4465 51.7798C45.7703 52.1966 45.4334 52.8643 45.4334 53.7904H45.4309Z" fill="#14142B"/>
<path d="M71.6512 40.121C74.039 40.121 75.7703 40.7157 76.8428 41.9001C77.9153 43.0869 78.4528 44.9732 78.4528 47.5613V59.0252H73.3157V48.5946C73.3157 47.0764 73.068 45.948 72.5726 45.212C72.0773 44.476 71.2277 44.108 70.0215 44.108C68.622 44.108 67.609 44.5248 66.9823 45.3534C66.3557 46.1844 66.0411 47.5491 66.0411 49.4476V59.0252H60.9041V40.6182H65.7885V43.182H65.8974C67.1755 41.1422 69.0926 40.121 71.6512 40.121Z" fill="#14142B"/>
<path d="M88.6452 40.121C91.2261 40.121 93.0838 41.1056 94.2182 43.0747H94.29V40.6182H99.1744V57.8846C99.1744 60.5435 98.3372 62.5589 96.6604 63.9358C94.9835 65.3128 92.6008 66 89.5146 66C87.1492 66 85.2023 65.4419 83.6716 64.3257C82.1384 63.2096 81.326 61.7985 81.2294 60.0902H86.3318C86.7405 61.7742 88.021 62.6174 90.166 62.6174C91.4936 62.6174 92.5116 62.2299 93.2225 61.4598C93.9333 60.6897 94.29 59.5906 94.29 58.1673V55.6401H94.2182C93.7104 56.5418 92.9698 57.2413 91.9915 57.7409C91.0156 58.238 89.8861 58.489 88.608 58.489C86.099 58.489 84.1398 57.6824 82.7279 56.069C81.3161 54.4557 80.6127 52.1771 80.6127 49.2331C80.6127 46.6231 81.3533 44.4517 82.8369 42.7189C84.3206 40.9862 86.255 40.121 88.6452 40.121ZM85.7497 49.1625C85.7497 50.8952 86.1163 52.2478 86.8544 53.2201C87.5901 54.1925 88.608 54.6799 89.9109 54.6799C91.2137 54.6799 92.2986 54.212 93.0937 53.2738C93.8888 52.3355 94.2875 51.0975 94.2875 49.5524C94.2875 47.7002 93.9086 46.3014 93.1482 45.3509C92.3878 44.4029 91.2955 43.9277 89.8737 43.9277C88.5461 43.9277 87.5281 44.42 86.8173 45.4045C86.1064 46.3891 85.7497 47.6418 85.7497 49.16V49.1625Z" fill="#14142B"/>
<path d="M110.88 40.121C112.641 40.121 114.209 40.5256 115.584 41.3323C116.958 42.1389 118.038 43.3087 118.821 44.8392C119.604 46.3696 119.998 48.1316 119.998 50.1251C119.998 50.3152 119.985 50.6247 119.96 51.0512H106.464C106.511 52.5232 106.905 53.6686 107.64 54.4874C108.376 55.3063 109.503 55.7157 111.024 55.7157C111.965 55.7157 112.827 55.4842 113.61 55.0211C114.392 54.5581 114.895 53.9951 115.111 53.3298H119.633C118.306 57.4606 115.388 59.5248 110.878 59.5248C109.166 59.5004 107.578 59.1324 106.12 58.4208C104.661 57.7092 103.497 56.6003 102.627 55.0918C101.758 53.5857 101.324 51.8359 101.324 49.8424C101.324 47.9683 101.765 46.26 102.645 44.7149C103.524 43.1722 104.695 42.0219 106.154 41.2616C107.613 40.5012 109.188 40.1235 110.875 40.1235L110.88 40.121ZM114.826 47.844C114.586 46.4671 114.137 45.4704 113.488 44.8538C112.837 44.2372 111.908 43.9277 110.702 43.9277C109.496 43.9277 108.458 44.2786 107.735 44.9781C107.011 45.6775 106.588 46.6328 106.469 47.844H114.826Z" fill="#14142B"/>
</g>
<defs>
<clipPath id="clip0_53_9">
<rect width="120" height="33" fill="white" transform="translate(0 33)"/>
</clipPath>
</defs>
</svg>
