<svg width="120" height="100" viewBox="0 0 120 100" fill="none" xmlns="http://www.w3.org/2000/svg">
<g clip-path="url(#clip0_4736_119128)">
<path d="M28.5489 34.6953H26.1523V50.3039H34.6025V48.6284H28.5489V34.6953Z" fill="#14142B"/>
<path d="M39.2696 34.6953H36.873V50.3039H45.3232V48.6284H39.2696V34.6953Z" fill="#14142B"/>
<path d="M60.3562 48.4649C60.0539 47.7877 59.7153 47.0176 59.3391 46.1561C58.9629 45.2945 58.5616 44.3627 58.1339 43.3594C57.7063 42.3574 57.2786 41.3478 56.8522 40.3308C56.4246 39.3137 56.0044 38.3079 55.5918 37.3134L54.3892 34.4102H53.6518L46.7617 50.3059H48.6855L51.0194 44.4455H56.1437C56.3205 44.8932 56.5111 45.3635 56.7118 45.8538L57.3639 47.4453C57.5758 47.967 57.7715 48.4661 57.9471 48.9427C58.1214 49.4155 58.2618 49.8256 58.3634 50.1592L58.4086 50.3059H61.2541L61.0886 49.9999C60.8992 49.6462 60.6522 49.1308 60.3562 48.4649ZM55.6583 43.012H51.59L53.5301 38.1411L55.6583 43.012Z" fill="#14142B"/>
<path d="M22.7058 48.4649C22.4036 47.7877 22.0649 47.0176 21.6887 46.1561C21.3125 45.2945 20.9112 44.3627 20.4835 43.3594C20.0559 42.3574 19.6282 41.3478 19.2018 40.3308C18.7742 39.3137 18.3541 38.3079 17.9415 37.3134L16.7388 34.4102H16.0014L9.11133 50.3059H11.0351L13.369 44.4455H18.4933C18.6701 44.8932 18.8607 45.3635 19.0626 45.8538L19.7148 47.4453C19.9267 47.967 20.1223 48.4661 20.2979 48.9427C20.4722 49.413 20.6114 49.8218 20.7143 50.1592L20.7594 50.3059H23.6062L23.4407 49.9999C23.2488 49.6475 23.003 49.1308 22.7058 48.4649ZM18.0079 43.012H13.9396L15.8797 38.1411L18.0079 43.012Z" fill="#14142B"/>
<path d="M75.822 36.7182C75.2125 36.0711 74.4224 35.5657 73.4756 35.217C72.6742 34.9223 71.7061 34.753 70.5924 34.7116L63.1895 34.6953V50.3039H69.4512L69.6581 50.2988V50.2938C70.4507 50.265 71.2734 50.1358 72.1086 49.9088C73.0818 49.6455 73.9848 49.1902 74.7924 48.5556C75.6013 47.9198 76.276 47.0745 76.7965 46.0424C77.3169 45.009 77.5815 43.7236 77.5815 42.2224C77.5815 41.0712 77.4411 40.0215 77.1639 39.0997C76.883 38.1679 76.4315 37.3665 75.822 36.7182ZM65.7278 36.2366C66.1353 36.1877 66.5906 36.1438 67.0847 36.1049C67.6515 36.061 68.2711 36.0397 68.927 36.0397C69.8199 36.0397 70.6526 36.1313 71.3988 36.3106C72.1299 36.4862 72.7658 36.806 73.2912 37.2612C73.8142 37.7139 74.2343 38.3447 74.5391 39.1361C74.8451 39.9349 75.0006 40.9733 75.0006 42.2237C75.0006 43.6483 74.8024 44.8209 74.4099 45.7113C74.0186 46.5992 73.5107 47.3066 72.8975 47.8132C72.2842 48.3211 71.5794 48.6723 70.8031 48.8554C69.4562 49.1739 68.0591 49.1714 66.7963 49.0824C66.3661 49.0523 66.0074 49.0096 65.729 48.9557V36.2366H65.7278Z" fill="#14142B"/>
<path d="M82.6759 34.6953H80.0938V50.3039H82.6759V34.6953Z" fill="#14142B"/>
<path d="M97.5108 34.6953V39.9487L97.5146 40.1043C97.5296 40.8693 97.5371 41.6644 97.5371 42.4883C97.5371 42.9874 97.5296 43.5054 97.5146 44.0421C97.5008 44.5689 97.4494 45.0868 97.3628 45.5822C97.2775 46.0725 97.1371 46.5478 96.9452 46.9955C96.7583 47.432 96.4887 47.8182 96.1426 48.1418C95.7977 48.4666 95.3525 48.7275 94.822 48.9156C94.3505 49.0824 93.7548 49.1764 93.0613 49.194C92.3564 49.1764 91.7607 49.0824 91.2892 48.9156C90.7575 48.7262 90.3135 48.4666 89.9686 48.1418C89.6225 47.817 89.3529 47.432 89.166 46.9955C88.9741 46.5478 88.8337 46.0725 88.7484 45.5822C88.6619 45.0868 88.6104 44.5689 88.5967 44.0421C88.5816 43.5066 88.5741 42.9887 88.5741 42.4883C88.5741 41.6644 88.5816 40.8693 88.5967 40.103L88.6004 34.6953H86.3242L86.348 43.9318L86.3468 44.1249C86.3468 46.3396 86.8735 47.9888 87.9119 49.0259C88.9491 50.0643 90.6208 50.5898 92.8794 50.5898C92.917 50.5898 92.9521 50.5885 92.9885 50.586L93.0537 50.5835L93.1252 50.586C93.1603 50.5873 93.1967 50.5898 93.2343 50.5898C95.493 50.5898 97.1647 50.0631 98.2031 49.0259C99.2415 47.9875 99.7682 46.3384 99.7682 44.1249L99.7669 43.9343L99.7908 34.6953H97.5108Z" fill="#14142B"/>
<path d="M118.138 34.4075H117.542L117.483 34.5154C117.115 35.1938 116.717 35.9225 116.29 36.7038C115.861 37.4863 115.43 38.2827 114.995 39.0941C114.56 39.9055 114.132 40.7056 113.712 41.4944C113.292 42.2833 112.898 43.0157 112.53 43.6929C112.161 44.3713 111.836 44.9733 111.557 45.4963C111.377 45.8324 111.224 46.1171 111.099 46.3528L104.876 34.4062H104.194L101.99 50.302H103.965L105.02 39.4829L110.381 50.1427L110.439 50.2568H110.893L116.424 39.4703L117.5 50.302H119.999L118.138 34.4075Z" fill="#14142B"/>
<path d="M10.1958 38.6395C10.1958 37.9949 10.1005 37.4443 9.91359 37.0004C9.72673 36.5564 9.47717 36.1802 9.16991 35.8817C8.86516 35.5845 8.51903 35.355 8.1428 35.197C7.77786 35.0452 7.40414 34.9298 7.03167 34.8533C6.66171 34.7781 6.30554 34.7317 5.9707 34.7166C5.83024 34.7104 5.70357 34.7053 5.58569 34.7028L0.0488281 34.6953V50.3039H2.43288V49.2416H2.45419V43.4464C2.67492 43.4652 2.89313 43.4765 3.10382 43.4815C3.83245 43.5016 4.77178 43.5079 5.89796 43.3122C6.60402 43.1906 7.28124 42.9523 7.90954 42.6037C8.54662 42.25 9.0909 41.7534 9.52733 41.1251C9.97128 40.488 10.1958 39.6515 10.1958 38.6395ZM2.45545 35.9281H4.23878C4.79811 35.9281 5.30602 35.9682 5.75123 36.046C6.17637 36.1212 6.53881 36.2629 6.82976 36.4648C7.11444 36.663 7.33892 36.9464 7.49945 37.3076C7.66373 37.6763 7.7465 38.1692 7.7465 38.7711C7.7465 39.4847 7.62486 40.0729 7.38407 40.5194C7.14328 40.9658 6.83101 41.3207 6.45603 41.5728C6.07479 41.8299 5.64965 42.0092 5.19065 42.1058C4.22123 42.3115 3.29946 42.2952 2.45545 42.1196V35.9281Z" fill="#14142B"/>
<path d="M17.9032 59.7017C17.6185 59.4383 17.2749 59.2339 16.8811 59.0972C16.1048 58.8289 15.0903 58.8251 14.304 59.0972C13.9102 59.2352 13.5653 59.4383 13.2819 59.7017C12.9972 59.9663 12.7727 60.2936 12.6159 60.6749C12.4592 61.0549 12.3789 61.4901 12.3789 61.9716C12.3789 62.4532 12.4592 62.8884 12.6159 63.2684C12.7727 63.6496 12.9972 63.9769 13.2819 64.2416C13.5665 64.5062 13.9114 64.7056 14.3065 64.8347C14.6952 64.9627 15.1266 65.0266 15.5882 65.0266C16.0547 65.0266 16.4886 64.9627 16.8774 64.8347C17.2737 64.7056 17.6185 64.5062 17.9032 64.2416C18.1879 63.9769 18.4124 63.6496 18.5692 63.2684C18.7259 62.8896 18.8049 62.4532 18.8049 61.9716C18.8049 61.4901 18.7259 61.0536 18.5692 60.6749C18.4124 60.2936 18.1879 59.9663 17.9032 59.7017ZM13.6531 63.0915C13.5452 62.7793 13.49 62.403 13.49 61.9704C13.49 61.539 13.5452 61.1615 13.6531 60.8492C13.7597 60.542 13.9089 60.2861 14.0958 60.0892C14.2826 59.8923 14.5046 59.7443 14.7567 59.6503C15.0125 59.5537 15.2922 59.5048 15.5882 59.5048C15.8891 59.5048 16.1713 59.5537 16.4271 59.6503C16.678 59.7456 16.8999 59.8923 17.0868 60.0892C17.2749 60.2874 17.4242 60.5432 17.5308 60.8492C17.6386 61.1602 17.6938 61.5377 17.6938 61.9704C17.6938 62.403 17.6386 62.7793 17.5308 63.0915C17.4242 63.3975 17.2749 63.6534 17.0868 63.8528C16.8999 64.0497 16.678 64.1964 16.4271 64.2917C15.9192 64.4823 15.2746 64.4861 14.7567 64.2917C14.5059 64.1977 14.2826 64.0497 14.0958 63.8528C13.9089 63.6546 13.7597 63.3988 13.6531 63.0915Z" fill="#14142B"/>
<path d="M95.3622 59.7022C95.0788 59.4388 94.7352 59.2356 94.3401 59.0977C93.5638 58.8281 92.5493 58.8256 91.7642 59.0977C91.3704 59.2356 91.0268 59.4376 90.7408 59.7022C90.4562 59.968 90.2317 60.2954 90.0749 60.6754C89.9182 61.0554 89.8379 61.4905 89.8379 61.9721C89.8379 62.4537 89.9182 62.8888 90.0749 63.2688C90.2317 63.6488 90.4549 63.9774 90.7408 64.242C91.0255 64.5066 91.3717 64.706 91.7667 64.8352C92.1555 64.9631 92.5869 65.0271 93.0484 65.0271C93.5149 65.0271 93.9488 64.9631 94.3376 64.8352C94.7339 64.706 95.0788 64.5066 95.3622 64.242C95.6481 63.9774 95.8714 63.6501 96.0294 63.2688C96.1862 62.8888 96.2664 62.4537 96.2664 61.9721C96.2664 61.4905 96.1862 61.0554 96.0294 60.6754C95.8714 60.2941 95.6469 59.9668 95.3622 59.7022ZM91.1133 63.092C91.0055 62.781 90.9503 62.4035 90.9503 61.9708C90.9503 61.5382 91.0055 61.1619 91.1133 60.8497C91.2199 60.5424 91.3692 60.2866 91.5573 60.0897C91.7441 59.8928 91.9661 59.7448 92.2169 59.6508C92.474 59.5542 92.7537 59.5053 93.0484 59.5053C93.3494 59.5053 93.6315 59.5542 93.8874 59.6508C94.1382 59.7461 94.3602 59.8928 94.547 60.0897C94.7352 60.2878 94.8844 60.5437 94.991 60.8497C95.0989 61.1607 95.154 61.5369 95.154 61.9708C95.154 62.4035 95.0989 62.781 94.991 63.092C94.8844 63.398 94.7352 63.6538 94.5483 63.852C94.3614 64.0489 94.1382 64.1969 93.8874 64.2909C93.3795 64.4816 92.7349 64.4853 92.2169 64.2909C91.9661 64.1956 91.7441 64.0489 91.5573 63.852C91.3692 63.6551 91.2199 63.398 91.1133 63.092Z" fill="#14142B"/>
<path d="M1.21395 64.9219L1.22273 62.0951H4.18868L4.18492 64.9206H5.29605V59H4.18492V61.4016H1.21395V59H0.102816V64.7563L0.101562 64.9219" fill="#14142B"/>
<path d="M27.791 64.9168V59.8265H29.5404V59H25.0156V59.8265H26.7225V64.9219H27.791V64.9168Z" fill="#14142B"/>
<path d="M37.495 63.9462C37.4925 63.7455 37.4912 63.4897 37.4912 63.1812V62.3723C37.4912 62.3171 37.4912 62.2694 37.4925 62.2255H39.4827V61.4167H37.4962L37.4937 61.1947C37.4912 60.994 37.49 60.7883 37.49 60.5764C37.49 60.3783 37.4937 60.2014 37.5025 60.0459C37.5063 59.9682 37.51 59.8854 37.5138 59.8014H39.6709V59H36.4453V64.9206H39.7122V64.1443H37.4988C37.4975 64.0866 37.4962 64.0214 37.495 63.9462Z" fill="#14142B"/>
<path d="M47.9561 59H46.8438V64.9206H50.1684V64.1443H47.9461L47.9561 59Z" fill="#14142B"/>
<path d="M67.7687 60.0933C67.9669 59.8952 68.2026 59.7472 68.471 59.6519C68.9087 59.4964 69.4542 59.4575 69.907 59.5703C70.0788 59.6142 70.2368 59.6707 70.3747 59.7397C70.5139 59.8074 70.6419 59.8889 70.7535 59.9779C70.8663 60.0682 70.9617 60.1598 71.0382 60.2501L71.0846 60.3053H71.3705L71.6288 59.4399L71.5122 59.381C71.4119 59.3308 71.299 59.2781 71.1698 59.2217C71.0394 59.1653 70.8902 59.1126 70.7146 59.0599C70.5415 59.0098 70.3421 58.9684 70.1214 58.937C69.9007 58.9057 69.6436 58.8906 69.3602 58.8906C68.8673 58.8906 68.4096 58.9596 68.0007 59.095C67.5881 59.2317 67.2295 59.4349 66.9372 59.6983C66.6438 59.9629 66.4143 60.2902 66.2525 60.6727C66.0932 61.0527 66.0117 61.4891 66.0117 61.9707C66.0117 62.4673 66.0895 62.9125 66.2437 63.295C66.3992 63.6813 66.6237 64.0074 66.9134 64.267C67.2019 64.5266 67.5555 64.7209 67.9656 64.8438C68.3682 64.9642 68.8234 65.0257 69.32 65.0257C69.4818 65.0257 69.6649 65.0131 69.8656 64.9881C70.06 64.9642 70.2556 64.9354 70.45 64.9053C70.6481 64.8752 70.8375 64.8351 71.0143 64.7874C71.1912 64.7398 71.3391 64.6921 71.4583 64.6482L71.5586 64.6093V62.7783C71.5636 62.5137 71.5712 62.3193 71.5824 62.1964L71.5849 61.9669L71.3931 62.0271H70.5277V64.2055C70.4876 64.2243 70.4462 64.2406 70.4036 64.2544C70.3083 64.2858 70.2067 64.3109 70.0951 64.3309C69.9822 64.351 69.8668 64.3673 69.7477 64.3773C69.2335 64.4225 68.8034 64.371 68.4346 64.2243C68.155 64.114 67.9154 63.9547 67.7223 63.7515C67.5292 63.5484 67.3799 63.2938 67.2796 62.9966C67.1768 62.6931 67.1241 62.3482 67.1241 61.9682C67.1241 61.5368 67.1831 61.1618 67.2984 60.8508C67.4126 60.5473 67.5706 60.2915 67.7687 60.0933Z" fill="#14142B"/>
<path d="M83.0224 64.3299C82.8982 64.1845 82.7653 64.0239 82.6261 63.8471C82.4844 63.6703 82.3389 63.4859 82.1859 63.2928L81.7444 62.7372C81.604 62.5604 81.4761 62.3999 81.362 62.2531C81.3218 62.2005 81.2842 62.1528 81.2491 62.1089C81.3444 62.0851 81.4435 62.0537 81.5476 62.0174C81.7532 61.9446 81.9501 61.8418 82.1307 61.7114C82.3151 61.5772 82.4731 61.4066 82.5997 61.2022C82.7314 60.9903 82.7991 60.7357 82.7991 60.446C82.7991 60.1763 82.7477 59.9443 82.6449 59.7587C82.5433 59.5731 82.4016 59.4214 82.226 59.3073C82.0555 59.1956 81.8548 59.1166 81.6303 59.069C81.5074 59.0426 81.3732 59.0251 81.2115 59.0138L78.9277 59V64.9206H80.0401V62.2343H80.0627C80.2195 62.3999 80.395 62.6005 80.5844 62.8338C80.7926 63.0909 80.9983 63.3505 81.1989 63.6101C81.3996 63.8697 81.5827 64.1142 81.747 64.3425C81.9125 64.5707 82.0367 64.7413 82.1182 64.8554L82.1646 64.9206H83.5842L83.3183 64.6547C83.2418 64.582 83.144 64.4729 83.0224 64.3299ZM80.0389 59.6371C80.0865 59.6321 80.1392 59.6283 80.1956 59.6245C80.4038 59.612 80.7311 59.5882 81.061 59.6546C81.1901 59.681 81.3068 59.7286 81.4159 59.8001C81.5212 59.8691 81.604 59.9594 81.6717 60.0773C81.7369 60.1914 81.7695 60.3419 81.7695 60.5262C81.7695 60.7407 81.7269 60.9175 81.6429 61.0517C81.5551 61.1922 81.4447 61.3038 81.313 61.3866C81.1751 61.4718 81.0233 61.532 80.8603 61.5659C80.5794 61.6248 80.2972 61.6261 80.0765 61.6123C80.064 61.611 80.0527 61.611 80.0401 61.6098V59.6371H80.0389Z" fill="#14142B"/>
<path d="M119.813 59.8992C119.739 59.7249 119.641 59.5769 119.521 59.4603C119.401 59.3436 119.265 59.2533 119.117 59.1906C118.978 59.1329 118.835 59.089 118.692 59.0589C118.547 59.0301 118.415 59.0125 118.289 59.0075C118.224 59.005 118.164 59.0025 118.104 59.0013L116.02 59V64.9206H117.132V62.3974C117.163 62.3999 117.195 62.4011 117.225 62.4011C117.499 62.4086 117.854 62.4099 118.272 62.3372C118.542 62.2908 118.8 62.1992 119.039 62.0663C119.286 61.9296 119.496 61.7377 119.663 61.4969C119.836 61.2486 119.924 60.925 119.924 60.5338C119.922 60.2867 119.886 60.0735 119.813 59.8992ZM117.131 59.6133H117.645C117.847 59.6133 118.03 59.627 118.189 59.6559C118.335 59.6822 118.459 59.7299 118.555 59.7976C118.649 59.8628 118.722 59.9544 118.776 60.076C118.832 60.2027 118.861 60.3732 118.861 60.5839C118.861 60.8335 118.82 61.0392 118.737 61.1922C118.653 61.3477 118.549 61.4668 118.42 61.5533C118.288 61.6424 118.14 61.7051 117.98 61.7377C117.69 61.7992 117.414 61.8067 117.132 61.7628V59.6133H117.131Z" fill="#14142B"/>
<path d="M107.622 60.3682C107.626 60.7545 107.627 61.2436 107.627 61.8368C107.627 61.9584 107.624 62.0926 107.622 62.2519L107.619 62.3949C107.614 62.5867 107.596 62.7849 107.563 62.9855C107.532 63.1774 107.48 63.363 107.41 63.5398C107.344 63.7079 107.249 63.8584 107.132 63.9863C107.015 64.113 106.862 64.2171 106.676 64.2961C106.49 64.3751 106.337 64.4165 106.057 64.4165C105.77 64.4165 105.525 64.3826 105.333 64.3136C105.145 64.2472 104.988 64.1556 104.867 64.0415C104.745 63.9274 104.651 63.7932 104.586 63.6389C104.516 63.4771 104.465 63.3053 104.434 63.1285C104.408 62.9768 104.398 62.8187 104.389 62.6783L104.409 59H103.391V62.7736C103.419 63.5398 103.62 64.1155 103.988 64.4842C104.39 64.8868 105.033 65.0912 105.898 65.0912C106.288 65.0912 106.64 65.0347 106.945 64.9256C107.256 64.8128 107.522 64.6447 107.735 64.4252C107.947 64.207 108.112 63.9387 108.228 63.6276C108.336 63.3342 108.396 62.9956 108.405 62.6143V59.0088H107.619V60.3682H107.622Z" fill="#14142B"/>
<path d="M119.975 53.9727H0V55.2782H119.975V53.9727Z" fill="#14142B"/>
</g>
<defs>
<clipPath id="clip0_4736_119128">
<rect width="120" height="100" fill="white"/>
</clipPath>
</defs>
</svg>
