<svg width="120" height="100" viewBox="0 0 120 100" fill="none" xmlns="http://www.w3.org/2000/svg">
<g clip-path="url(#clip0_4736_119119)">
<path d="M39.1226 43.1508L33.8311 43.1484C33.8099 43.1484 33.791 43.1649 33.791 43.1862V55.5614C33.791 55.5814 33.8087 55.6003 33.8311 55.6003H35.9758C35.9946 55.6003 36.0135 55.5826 36.0135 55.5614L36.0159 44.5291C36.0159 44.5185 36.0206 44.5102 36.0288 44.5102L38.4847 44.5055C39.3785 44.5055 39.8701 45.4063 39.8701 47.0393C39.8701 48.6722 39.3785 49.5754 38.4847 49.5754L37.0074 49.5742C36.985 49.5742 36.9709 49.5919 36.9709 49.6131V50.8971C36.9709 50.9218 36.985 50.9372 37.0074 50.9372H39.1238C39.8701 50.9372 40.6011 50.5905 41.1293 49.9963C41.7542 49.2912 42.0832 48.2725 42.0832 47.0511C42.0832 44.6859 40.9265 43.1508 39.1226 43.1508Z" fill="#14142B"/>
<path d="M45.5887 43.1484H43.4428C43.4181 43.1484 43.4004 43.1649 43.4004 43.1862V55.5614C43.4004 55.5814 43.4181 55.6003 43.4428 55.6003H45.5887C45.6087 55.6003 45.6276 55.5826 45.6276 55.5614V43.1862C45.6288 43.1661 45.6087 43.1484 45.5887 43.1484Z" fill="#14142B"/>
<path d="M54.9489 46.1639C54.9489 46.1415 54.9288 46.125 54.9088 46.125H51.0875C47.6613 46.125 47.2227 48.6399 47.2227 50.8506L47.225 52.7618C47.225 54.4066 48.2484 55.6009 49.655 55.6009H51.7395C51.7596 55.6009 51.7773 55.5832 51.7773 55.562V54.2792C51.7773 54.258 51.7596 54.2391 51.7395 54.2391L50.2504 54.2415C49.9073 54.2344 49.4451 54.0894 49.4451 52.9092V50.8447C49.4428 49.4735 49.5713 48.5963 49.8554 48.0975C50.1643 47.5469 50.6489 47.4726 51.0864 47.4726H52.7158C52.7252 47.4726 52.7287 47.4821 52.7299 47.4927C52.7287 47.4927 52.7276 55.5608 52.7276 55.5608C52.7276 55.5809 52.7441 55.5998 52.7677 55.5998H54.91C54.9312 55.5998 54.95 55.5821 54.95 55.5608V46.2193V46.1639H54.9489Z" fill="#14142B"/>
<path d="M70.3844 48.3291L69.328 48.2478C68.5357 48.1794 67.9461 47.7408 67.9461 46.4427C67.9461 44.9264 68.6264 44.5114 69.5343 44.5114H72.4595C72.4772 44.5114 72.4984 44.4949 72.4984 44.4737V43.1862C72.4984 43.1661 72.4772 43.1484 72.4595 43.1484H72.4017H72.3982L69.2301 43.1496C67.234 43.1496 65.8145 44.3216 65.8145 46.6584V46.7598C65.8145 48.6038 66.9487 49.935 68.6394 50.0635L69.6911 50.1413C70.4929 50.2026 70.9928 50.9195 70.9928 52.0077V52.3143C70.9928 52.9946 70.823 54.2408 69.3633 54.2408H66.3816H66.325C66.3049 54.2408 66.2861 54.2585 66.2861 54.2809V55.5625C66.2861 55.5826 66.3049 55.6014 66.325 55.6014H70.0979C71.2604 55.6014 73.207 55.131 73.207 51.9665C73.207 50.8204 72.9464 49.9161 72.4194 49.2641C71.9667 48.7029 71.3005 48.3987 70.3844 48.3291Z" fill="#14142B"/>
<path d="M87.9583 46.1639C87.9583 46.1415 87.9406 46.125 87.9194 46.125H84.0899C80.6707 46.125 80.2285 48.6399 80.2285 50.8506L80.2321 52.7618C80.2321 54.4066 81.2543 55.6009 82.6679 55.6009H84.7466C84.7666 55.6009 84.7855 55.5832 84.7855 55.562V54.2792C84.7855 54.258 84.7666 54.2391 84.7466 54.2391L83.2563 54.2415C82.9144 54.2344 82.4569 54.0894 82.4557 52.9092V50.8447C82.4557 49.4735 82.5842 48.5963 82.8625 48.0975C83.1714 47.5469 83.6595 47.4726 84.0899 47.4726H85.7264C85.7346 47.4726 85.7405 47.4821 85.7429 47.4927L85.7393 55.5608C85.7393 55.5809 85.757 55.5998 85.7782 55.5998H87.9229C87.9441 55.5998 87.9594 55.5821 87.9594 55.5608V46.1639H87.9583Z" fill="#14142B"/>
<path d="M79.3371 46.1235H77.0097C77.0038 46.1235 76.9979 46.1176 76.9979 46.1093V46.1011V44.5506C76.9979 44.5294 76.9814 44.5117 76.9601 44.5117H74.8167C74.7943 44.5117 74.7754 44.5294 74.7754 44.5506V52.7626C74.7754 54.4074 75.8011 55.6006 77.2125 55.6006H78.7476C78.77 55.6006 78.7865 55.5829 78.7865 55.5617V54.2801C78.7865 54.2588 78.7688 54.2388 78.7476 54.2388H77.8055C77.5638 54.2353 76.9979 54.2235 76.9955 53.0102V47.4817C76.9955 47.4758 77.0026 47.4699 77.0085 47.4699C77.7218 47.4735 79.3371 47.4699 79.3371 47.4699C79.3571 47.4699 79.3748 47.4534 79.3748 47.4346V46.16C79.3748 46.14 79.3571 46.1235 79.3371 46.1235Z" fill="#14142B"/>
<path d="M94.3093 46.1235H91.9949C91.9854 46.1235 91.9795 46.1176 91.9795 46.1093V46.1011V44.5506C91.9795 44.5294 91.9642 44.5117 91.9441 44.5117H89.7959C89.7747 44.5117 89.7559 44.5294 89.7559 44.5506V52.7626C89.7559 54.4074 90.7793 55.6006 92.1906 55.6006H93.7257C93.7481 55.6006 93.7634 55.5829 93.7634 55.5617V54.2801C93.7634 54.2588 93.7481 54.2388 93.7257 54.2388H92.7836C92.5407 54.2353 91.9795 54.2235 91.9795 53.0102V47.4817C91.9795 47.4758 91.9866 47.4699 91.9925 47.4699C92.6999 47.4735 94.3093 47.4699 94.3093 47.4699C94.3282 47.4699 94.347 47.4534 94.347 47.4346V46.16C94.347 46.14 94.3282 46.1235 94.3093 46.1235Z" fill="#14142B"/>
<path d="M97.8543 46.125H95.7108C95.6907 46.125 95.6719 46.1415 95.6719 46.1639V55.5644C95.6719 55.5844 95.6907 55.6033 95.7108 55.6033H97.8543C97.8778 55.6033 97.8944 55.5856 97.8944 55.5644V46.1639C97.8932 46.1415 97.8778 46.125 97.8543 46.125Z" fill="#14142B"/>
<path d="M97.8543 43.1484H95.7108C95.6907 43.1484 95.6719 43.1649 95.6719 43.1862V44.983C95.6719 45.0054 95.6907 45.0208 95.7108 45.0208H97.8543C97.8778 45.0208 97.8944 45.0054 97.8944 44.983V43.1862C97.8932 43.1661 97.8778 43.1484 97.8543 43.1484Z" fill="#14142B"/>
<path d="M112.685 46.125H108.859C108.839 46.125 108.821 46.1415 108.821 46.1639L108.82 55.5644C108.82 55.5844 108.838 55.6033 108.856 55.6033H111.003C111.024 55.6033 111.039 55.5856 111.039 55.5644L111.036 47.4939C111.036 47.4833 111.04 47.4774 111.051 47.4774L112.683 47.4762C113.124 47.4762 113.607 47.5481 113.917 48.0574C114.2 48.5185 114.329 49.3285 114.329 50.6006C114.33 50.656 114.326 55.5632 114.326 55.5632C114.326 55.5833 114.344 55.6021 114.365 55.6021H116.504C116.528 55.6021 116.544 55.5844 116.544 55.5632V50.8494C116.545 48.6399 116.104 46.125 112.685 46.125Z" fill="#14142B"/>
<path d="M103.362 46.125C99.7809 46.125 99.3223 48.6517 99.3223 50.8612C99.3223 53.0731 99.7797 55.608 103.362 55.608C106.942 55.608 107.4 53.0731 107.4 50.8612C107.399 48.6517 106.942 46.125 103.362 46.125ZM104.72 53.619C104.383 54.1743 103.847 54.2486 103.36 54.2486C102.879 54.2486 102.342 54.1743 102.001 53.619C101.693 53.1191 101.551 52.243 101.551 50.8612V50.8506C101.551 49.22 101.751 48.2944 102.2 47.8523C102.469 47.5847 102.817 47.4762 103.36 47.4762C103.912 47.4762 104.257 47.5847 104.525 47.8523C104.97 48.2933 105.171 49.2235 105.171 50.8612C105.171 52.2442 105.029 53.1214 104.72 53.619Z" fill="#14142B"/>
<path d="M56.1591 46.125C56.1402 46.125 56.1284 46.1415 56.1343 46.1627L59.3154 55.4771C59.3213 55.4984 59.3213 55.5302 59.3142 55.5514L57.5232 60.1626C57.5162 60.185 57.5256 60.2004 57.5468 60.2004H59.4121C59.4356 60.2004 59.4592 60.185 59.4675 60.1626L65.0502 46.1627C65.0584 46.1403 65.0478 46.125 65.0266 46.125H62.9916C62.9692 46.125 62.9456 46.1415 62.9397 46.1627L60.5758 52.2831C60.5675 52.3032 60.5569 52.3032 60.5486 52.2831L58.4618 46.1627C58.457 46.1403 58.4335 46.125 58.4111 46.125H56.1591Z" fill="#14142B"/>
<path d="M118.97 53.5273C119.587 53.5273 120.002 53.986 120.002 54.5649C120.002 55.1473 119.585 55.6025 118.97 55.6025C118.353 55.6025 117.928 55.1485 117.928 54.5649C117.929 53.9872 118.355 53.5273 118.97 53.5273ZM118.97 55.4492C119.493 55.4492 119.84 55.0542 119.84 54.5649C119.84 54.0815 119.492 53.6853 118.97 53.6853C118.437 53.6853 118.094 54.0803 118.094 54.5649C118.095 55.0542 118.437 55.4492 118.97 55.4492ZM118.56 53.9624H119.034C119.254 53.9624 119.416 54.0261 119.416 54.2737C119.416 54.4163 119.347 54.5201 119.195 54.5649V54.5696C119.273 54.5897 119.327 54.6486 119.366 54.7866C119.405 54.9198 119.449 55.0483 119.484 55.1615H119.264C119.234 55.0731 119.195 54.9198 119.17 54.8361C119.136 54.6981 119.097 54.6533 118.916 54.6533H118.774V55.1615H118.559V53.9624H118.56ZM118.775 54.5012H118.966C119.119 54.5012 119.211 54.4423 119.211 54.3032C119.211 54.1404 119.099 54.1157 118.981 54.1157H118.775V54.5012Z" fill="#14142B"/>
<path d="M10.0449 39V58.3527L14.4274 59.7405V43.5145C14.4274 42.7505 14.7681 42.2424 15.3152 42.4169C16.0297 42.6149 16.1688 43.32 16.1688 44.0758V50.5569C18.8959 51.8775 21.0441 50.5558 21.0441 47.0729C21.0441 43.5134 19.7849 41.9276 16.0804 40.653C14.6184 40.1661 11.9102 39.3443 10.0449 39Z" fill="#14142B"/>
<path d="M15.2598 56.9137L22.2974 54.4094C23.0933 54.1147 23.2159 53.7138 22.571 53.5028C21.9166 53.2882 20.7482 53.3495 19.9441 53.6383L15.2598 55.2902V52.6527L15.5274 52.5642C15.5274 52.5642 16.8833 52.0844 18.791 51.878C20.6939 51.6693 23.0284 51.9052 24.863 52.5961C26.9298 53.2528 27.1609 54.2102 26.6386 54.8763C26.1081 55.5354 24.8217 56.0129 24.8217 56.0129L15.2598 59.4475V56.9137Z" fill="#14142B"/>
<path d="M2.0165 56.6475C-0.102224 56.0568 -0.455935 54.8093 0.510873 54.0901C1.40222 53.4322 2.92082 52.937 2.92082 52.937L9.198 50.6992V53.2459L4.68465 54.8636C3.88527 55.1501 3.76501 55.5521 4.40876 55.7632C5.0643 55.9825 6.22801 55.9235 7.02739 55.6276L9.198 54.8459V57.1191C9.05769 57.1427 8.90206 57.1662 8.76057 57.191C6.59705 57.5483 4.29204 57.4009 2.0165 56.6475Z" fill="#14142B"/>
<path d="M25.1536 57.668C25.7702 57.668 26.1852 58.1266 26.1852 58.7055C26.1852 59.288 25.769 59.7431 25.1536 59.7431C24.537 59.7431 24.1113 59.2891 24.1113 58.7055C24.1113 58.1278 24.537 57.668 25.1536 57.668ZM25.1536 59.5898C25.6771 59.5898 26.0237 59.1948 26.0237 58.7055C26.0237 58.2221 25.6759 57.826 25.1536 57.826C24.6207 57.826 24.2776 58.2209 24.2776 58.7055C24.2788 59.1948 24.6207 59.5898 25.1536 59.5898ZM24.7433 58.103H25.2173C25.4377 58.103 25.5993 58.1667 25.5993 58.4143C25.5993 58.557 25.5309 58.6607 25.3788 58.7055V58.7102C25.4566 58.7303 25.5108 58.7892 25.5497 58.9272C25.5887 59.0604 25.6323 59.1889 25.6677 59.3021H25.4472C25.4177 59.2137 25.3788 59.0604 25.354 58.9767C25.3198 58.8388 25.2809 58.794 25.0994 58.794H24.9579V59.3021H24.7421V58.103H24.7433ZM24.9579 58.6419H25.1489C25.301 58.6419 25.3929 58.5829 25.3929 58.4438C25.3929 58.2811 25.2809 58.2563 25.163 58.2563H24.9579V58.6419Z" fill="#14142B"/>
</g>
<defs>
<clipPath id="clip0_4736_119119">
<rect width="120" height="100" fill="white"/>
</clipPath>
</defs>
</svg>
