<svg width="120" height="100" viewBox="0 0 120 100" fill="none" xmlns="http://www.w3.org/2000/svg">
<path d="M0 63.5364H27.5363V36H0V63.5364ZM26.1591 37.3772V53.8545H24.0104C23.502 53.8545 23.0953 53.0716 22.8761 52.6502C22.7586 52.4243 22.6818 52.2763 22.5587 52.1576C22.4118 52.0153 22.2028 51.952 21.9983 51.9836C21.7961 52.0164 21.6187 52.1441 21.5227 52.3294L19.8405 55.9253L18.4927 41.0522C18.4532 40.6512 18.1323 40.3394 17.729 40.3122C17.3291 40.2885 16.9653 40.5517 16.8704 40.9404L13.9817 53.3891L13.0033 51.5848C12.9163 51.4233 12.7638 51.3058 12.5864 51.2617C12.4091 51.2166 12.2193 51.2504 12.0656 51.351C11.9221 51.4459 11.8487 51.5656 11.7346 51.7475C11.3776 52.3237 10.4309 53.8556 8.20869 53.8556H1.37715V37.3772H26.1591ZM1.37715 62.1593V55.1639H8.20982C9.92138 55.1639 11.3177 54.486 12.3616 53.1484L13.6405 55.5085C13.7693 55.7446 14.0359 55.8801 14.3003 55.8463C14.5669 55.8124 14.7894 55.6135 14.8527 55.3514L17.4805 43.8529L18.713 57.8459C18.7458 58.2357 19.0768 58.5396 19.4666 58.5396C19.7569 58.5396 20.0167 58.378 20.1455 58.1182L22.1361 53.9878C22.6649 54.7685 23.2941 55.1639 24.0092 55.1639H26.158V62.1581H1.37715V62.1593Z" fill="#14142B"/>
<path d="M32.9023 54.7073L35.0059 52.5247C36.4904 53.9639 38.0754 54.7819 40.2084 54.7819C42.0928 54.7819 43.392 53.8883 43.5513 52.5981L43.5569 52.5495C43.7094 51.309 43.0971 50.6402 39.9655 49.8969C36.3797 49.0044 34.432 47.913 34.824 44.7147L34.8308 44.6661C35.1957 41.6893 37.9274 39.632 41.3743 39.632C43.9038 39.632 45.8175 40.4013 47.4048 41.8135L45.4854 44.1205C44.0664 42.9546 42.5808 42.3343 40.9947 42.3343C39.2097 42.3343 38.0551 43.2517 37.915 44.3916L37.9082 44.4413C37.7444 45.7801 38.4641 46.3754 41.7143 47.1685C45.2741 48.061 46.997 49.376 46.6434 52.2513L46.6377 52.301C46.2389 55.549 43.4473 57.4831 39.8028 57.4831C37.149 57.4842 34.7574 56.5669 32.9023 54.7073ZM48.4171 50.7148L48.4227 50.6651C48.956 46.3257 52.2073 43.8708 55.3311 43.8708C57.4889 43.8708 58.7214 44.9373 59.5111 46.1777L59.7608 44.1453H62.7602L61.1526 57.2357H58.152L58.4198 55.053C57.2855 56.4166 55.7875 57.5091 53.6557 57.5091C50.5828 57.5102 47.8838 55.0542 48.4171 50.7148ZM59.0039 50.7148L59.0106 50.6651C59.3202 48.1356 57.7397 46.4749 55.731 46.4749C53.6737 46.4749 51.7667 48.061 51.447 50.6651L51.4402 50.7148C51.1307 53.2432 52.6615 54.905 54.695 54.905C56.7037 54.905 58.6966 53.2194 59.0039 50.7148ZM65.6603 44.1453H68.6609L68.4146 46.1529C69.4065 44.9373 70.7532 43.8719 72.7856 43.8719C75.7353 43.8719 77.2028 45.8546 76.8312 48.8801L75.8054 57.2357H72.8059L73.7187 49.7974C73.9684 47.765 73.0951 46.5991 71.3101 46.5991C69.5748 46.5991 68.2101 47.8147 67.9604 49.8483L67.0533 57.2368H64.0538L65.6603 44.1453ZM80.3379 44.1453H83.3373L81.7297 57.2357H78.7303L80.3379 44.1453ZM80.8101 39.2852H84.0333L83.683 42.1355H80.4599L80.8101 39.2852ZM85.8442 53.616L86.6904 46.7234H85.0286L85.3449 44.1453H87.0067L87.4485 40.5493H90.4479L90.0062 44.1453H93.5265L93.2101 46.7234H89.6899L88.9013 53.1449C88.7578 54.3108 89.2945 54.783 90.3112 54.783C90.98 54.783 91.5935 54.6339 92.225 54.3368L91.9245 56.7906C91.128 57.2131 90.2796 57.4605 89.1397 57.4605C86.9344 57.4594 85.4918 56.4934 85.8442 53.616ZM93.8609 50.7148L93.8677 50.6651C94.4009 46.3257 97.6523 43.8708 100.776 43.8708C102.934 43.8708 104.165 44.9373 104.956 46.1777L105.206 44.1453H108.206L106.599 57.2357H103.598L103.866 55.053C102.732 56.4166 101.234 57.5091 99.1017 57.5091C96.0266 57.5102 93.3276 55.0542 93.8609 50.7148ZM104.449 50.7148L104.456 50.6651C104.766 48.1356 103.185 46.4749 101.176 46.4749C99.1187 46.4749 97.2117 48.061 96.8931 50.6651L96.8863 50.7148C96.5756 53.2432 98.1076 54.905 100.14 54.905C102.149 54.905 104.142 53.2194 104.449 50.7148ZM108.641 55.5253L110.23 53.4928C111.537 54.5593 112.983 55.1039 114.322 55.1039C115.611 55.1039 116.422 54.5582 116.528 53.6905L116.535 53.6408C116.659 52.6241 115.314 52.2772 113.835 51.8061C111.967 51.2605 109.908 50.4674 110.215 47.9627L110.222 47.913C110.527 45.4332 112.769 43.9216 115.373 43.9216C117.01 43.9216 118.724 44.491 120.001 45.4084L118.549 47.5413C117.38 46.772 116.098 46.3009 115.007 46.3009C113.841 46.3009 113.105 46.8477 113.013 47.591L113.008 47.6408C112.889 48.6078 114.253 49.0044 115.73 49.4992C117.566 50.0946 119.617 50.9622 119.327 53.3189L119.321 53.3686C118.983 56.1218 116.684 57.4842 113.956 57.4842C112.096 57.4842 110.12 56.8154 108.641 55.5253Z" fill="#14142B"/>
</svg>
