<svg xmlns="http://www.w3.org/2000/svg" xml:space="preserve" viewBox="0 0 32 32" id="snapchat">
  <path id="OUTLINE_copy_2" d="M16 0C7.164 0 0 7.163 0 16s7.164 16 16 16 16-7.164 16-16S24.836 0 16 0zm9.41 20.07c-.112.263-.62.636-2.394.91-.145.022-.201.211-.288.607a5.854 5.854 0 0 1-.107.435c-.038.129-.118.19-.254.19h-.022c-.094 0-.228-.017-.397-.05a5.275 5.275 0 0 0-1.066-.113c-.25 0-.509.022-.769.065-.532.089-.984.408-1.463.746-.695.492-1.413.999-2.532.999-.049 0-.096-.001-.144-.004-.03.002-.062.004-.094.004-1.118 0-1.836-.507-2.53-.998-.479-.339-.931-.658-1.464-.747a4.733 4.733 0 0 0-.769-.065c-.451 0-.806.07-1.066.12a2.32 2.32 0 0 1-.397.057c-.108 0-.225-.023-.276-.197a6.458 6.458 0 0 1-.107-.438c-.079-.363-.136-.586-.288-.61-1.774-.274-2.281-.647-2.394-.913a.338.338 0 0 1-.027-.113.199.199 0 0 1 .167-.208c2.726-.449 3.949-3.236 4-3.354l.004-.01c.167-.338.2-.632.097-.872-.187-.441-.797-.635-1.201-.763a4.065 4.065 0 0 1-.266-.09c-.806-.319-.873-.646-.841-.812.054-.284.434-.482.741-.482.084 0 .158.015.221.044.363.17.689.256.971.256.39 0 .56-.164.58-.185-.01-.185-.022-.377-.035-.576-.081-1.289-.182-2.891.226-3.805 1.222-2.74 3.814-2.953 4.579-2.953l.335-.003h.045c.767 0 3.365.213 4.587 2.955.408.915.307 2.518.226 3.806l-.003.056-.031.521c.019.02.176.17.529.184.268-.01.577-.096.915-.254a.693.693 0 0 1 .284-.056.87.87 0 0 1 .327.062l.006.002c.274.097.453.289.457.49.004.189-.141.473-.848.752a4.065 4.065 0 0 1-.266.09c-.404.128-1.014.322-1.201.763-.102.24-.069.534.097.872l.005.01c.051.118 1.272 2.904 4 3.353a.2.2 0 0 1 .167.208.314.314 0 0 1-.026.114z"></path>
</svg>
