<svg width="120" height="100" viewBox="0 0 120 100" fill="none" xmlns="http://www.w3.org/2000/svg">
<path d="M111.501 55.2695C109.563 55.2695 108.002 56.8371 108.002 58.769C108.002 60.7078 109.569 62.2684 111.501 62.2684C113.433 62.2684 115.001 60.7009 115.001 58.769C115.001 56.8302 113.433 55.2695 111.501 55.2695ZM111.501 61.6222C109.927 61.6222 108.641 60.3434 108.641 58.7621C108.641 57.1877 109.92 55.9089 111.501 55.9089C113.083 55.9089 114.355 57.1877 114.355 58.7621C114.361 60.3434 113.083 61.6222 111.501 61.6222Z" fill="#14142B"/>
<path d="M110.902 58.4997H111.363C111.658 58.4997 111.844 58.4791 111.92 58.4585C111.995 58.4378 112.05 58.3897 112.091 58.3278C112.14 58.2591 112.16 58.1903 112.16 58.0872C112.16 57.9841 112.133 57.8947 112.078 57.8397C112.016 57.7709 111.94 57.7366 111.837 57.7091C111.789 57.7022 111.638 57.7022 111.383 57.7022H110.895V58.4997H110.902ZM110.27 60.2872V57.1797H111.59C111.913 57.1797 112.153 57.2072 112.305 57.2691C112.456 57.3241 112.58 57.4272 112.662 57.5647C112.758 57.7091 112.8 57.8672 112.8 58.0528C112.8 58.2866 112.731 58.4791 112.6 58.6303C112.463 58.7816 112.263 58.8778 111.995 58.9191C112.126 58.9947 112.236 59.0841 112.325 59.1803C112.408 59.2766 112.525 59.4416 112.676 59.6822L113.054 60.2872H112.305L111.858 59.6066C111.7 59.366 111.59 59.2147 111.528 59.1529C111.473 59.091 111.404 59.0497 111.335 59.0222C111.273 59.0016 111.17 58.9947 111.019 58.9947H110.895V60.2872H110.27Z" fill="#14142B"/>
<path d="M79.731 21.6523C80.5423 21.6523 81.1954 22.3124 81.1954 23.1305C81.1954 23.9486 80.5354 24.6087 79.731 24.6087C78.9198 24.6087 78.2598 23.9486 78.2598 23.1305C78.2666 22.3124 78.9198 21.6523 79.731 21.6523Z" fill="#14142B"/>
<path d="M79.4703 51.4922C80.2815 51.4922 80.9347 52.1522 80.9347 52.9703C80.9347 53.7885 80.2815 54.4485 79.4703 54.4485C78.659 54.4485 78.0059 53.7885 78.0059 52.9703C78.0059 52.1522 78.6659 51.4922 79.4703 51.4922Z" fill="#14142B"/>
<path d="M82.8111 44.043C83.6224 44.043 84.2824 44.703 84.2824 45.5211C84.2824 46.3393 83.6293 46.9993 82.8111 46.9993C81.9999 46.9993 81.3398 46.3393 81.3398 45.5211C81.3467 44.7099 82.0067 44.043 82.8111 44.043Z" fill="#14142B"/>
<path d="M81.7935 47.7695C82.6048 47.7695 83.2579 48.4295 83.2579 49.2477C83.2579 50.059 82.5979 50.7258 81.7935 50.7258C80.9823 50.7258 80.3223 50.0658 80.3223 49.2477C80.3291 48.4295 80.9823 47.7695 81.7935 47.7695Z" fill="#14142B"/>
<path d="M79.9098 36.5781C80.721 36.5781 81.3742 37.2381 81.3742 38.0563C81.3742 38.8744 80.721 39.5344 79.9098 39.5344C79.0985 39.5344 78.4454 38.8744 78.4454 38.0563C78.4385 37.2381 79.0985 36.5781 79.9098 36.5781Z" fill="#14142B"/>
<path d="M82.1441 40.2969C82.9553 40.2969 83.6085 40.9569 83.6085 41.775C83.6085 42.5932 82.9553 43.2532 82.1441 43.2532C81.3328 43.2532 80.6797 42.5932 80.6797 41.775C80.6797 40.9638 81.3397 40.2969 82.1441 40.2969Z" fill="#14142B"/>
<path d="M76.7125 29.1172C77.5238 29.1172 78.1769 29.7772 78.1769 30.5953C78.1769 31.4135 77.5238 32.0735 76.7125 32.0735C75.9012 32.0735 75.2481 31.4135 75.2481 30.5953C75.2412 29.7772 75.8944 29.1172 76.7125 29.1172Z" fill="#14142B"/>
<path d="M77.6402 25.3789C78.4514 25.3789 79.1115 26.0389 79.1115 26.8571C79.1115 27.6752 78.4583 28.3352 77.6402 28.3352C76.8289 28.3352 76.1758 27.6752 76.1758 26.8571C76.1758 26.0389 76.8358 25.3789 77.6402 25.3789Z" fill="#14142B"/>
<path d="M77.2632 32.8594C78.0745 32.8594 78.7345 33.5194 78.7345 34.3375C78.7345 35.1488 78.0814 35.8157 77.2632 35.8157C76.452 35.8157 75.7988 35.1557 75.7988 34.3375C75.7988 33.5194 76.452 32.8594 77.2632 32.8594Z" fill="#14142B"/>
<path d="M73.7285 23.1288C73.7285 24.0638 74.4848 24.8201 75.4129 24.8201C76.3411 24.8201 77.0973 24.0638 77.0973 23.1288C77.0973 22.1938 76.3411 21.4375 75.4129 21.4375C74.4848 21.4375 73.7285 22.1938 73.7285 23.1288ZM74.1617 23.1288C74.1617 22.4344 74.7254 21.8706 75.4129 21.8706C76.1004 21.8706 76.6642 22.4344 76.6642 23.1288C76.6642 23.8232 76.1004 24.3869 75.4129 24.3869C74.7254 24.3869 74.1617 23.8232 74.1617 23.1288Z" fill="#14142B"/>
<path d="M73.4688 52.9608C73.4688 53.8958 74.225 54.6521 75.1463 54.6521C76.0744 54.6521 76.8307 53.8958 76.8307 52.9608C76.8307 52.0258 76.0744 51.2695 75.1463 51.2695C74.225 51.2695 73.4688 52.0327 73.4688 52.9608ZM73.9088 52.9608C73.9088 52.2664 74.4656 51.7027 75.1532 51.7027C75.8407 51.7027 76.4044 52.2664 76.4044 52.9608C76.4044 53.6552 75.8407 54.219 75.1532 54.219C74.4656 54.2258 73.9088 53.6552 73.9088 52.9608Z" fill="#14142B"/>
<path d="M82.1094 52.9608C82.1094 53.8958 82.8656 54.6521 83.7938 54.6521C84.7219 54.6521 85.4782 53.8958 85.4782 52.9608C85.4782 52.0258 84.7219 51.2695 83.7938 51.2695C82.8656 51.2695 82.1094 52.0327 82.1094 52.9608ZM82.5425 52.9608C82.5425 52.2664 83.1063 51.7027 83.7938 51.7027C84.4813 51.7027 85.0451 52.2664 85.0451 52.9608C85.0451 53.6552 84.4813 54.219 83.7938 54.219C83.0994 54.2258 82.5425 53.6552 82.5425 52.9608Z" fill="#14142B"/>
<path d="M82.3711 23.1288C82.3711 24.0638 83.1274 24.8201 84.0555 24.8201C84.9836 24.8201 85.733 24.0638 85.733 23.1288C85.733 22.1938 84.9768 21.4375 84.0555 21.4375C83.1274 21.4375 82.3711 22.1938 82.3711 23.1288ZM82.8042 23.1288C82.8042 22.4344 83.368 21.8706 84.0555 21.8706C84.743 21.8706 85.2999 22.4344 85.2999 23.1288C85.2999 23.8232 84.743 24.3869 84.0555 24.3869C83.3611 24.3869 82.8042 23.8232 82.8042 23.1288Z" fill="#14142B"/>
<path d="M63.8496 45.5194C63.8496 46.4544 64.6059 47.2107 65.534 47.2107C66.4622 47.2107 67.2115 46.4476 67.2115 45.5194C67.2115 44.5844 66.4553 43.8281 65.534 43.8281C64.6059 43.8281 63.8496 44.5844 63.8496 45.5194ZM64.2827 45.5194C64.2827 44.825 64.8465 44.2613 65.534 44.2613C66.2215 44.2613 66.7784 44.825 66.7784 45.5194C66.7784 46.2138 66.2215 46.7776 65.534 46.7776C64.8465 46.7776 64.2827 46.2138 64.2827 45.5194Z" fill="#14142B"/>
<path d="M68.1738 45.5194C68.1738 46.4544 68.9301 47.2107 69.8582 47.2107C70.7864 47.2107 71.5358 46.4476 71.5358 45.5194C71.5358 44.5844 70.7795 43.8281 69.8582 43.8281C68.9301 43.8281 68.1738 44.5844 68.1738 45.5194ZM68.607 45.5194C68.607 44.825 69.1707 44.2613 69.8582 44.2613C70.5457 44.2613 71.1026 44.825 71.1026 45.5194C71.1026 46.2138 70.5457 46.7776 69.8582 46.7776C69.1638 46.7776 68.607 46.2138 68.607 45.5194Z" fill="#14142B"/>
<path d="M72.4922 45.5194C72.4922 46.4544 73.2485 47.2107 74.1697 47.2107C75.0979 47.2107 75.8541 46.4476 75.8541 45.5194C75.8541 44.5844 75.0979 43.8281 74.1697 43.8281C73.2485 43.8281 72.4922 44.5844 72.4922 45.5194ZM72.9253 45.5194C72.9253 44.825 73.4822 44.2613 74.1697 44.2613C74.8572 44.2613 75.421 44.825 75.421 45.5194C75.421 46.2138 74.8572 46.7776 74.1697 46.7776C73.4822 46.7776 72.9253 46.2138 72.9253 45.5194Z" fill="#14142B"/>
<path d="M76.8105 45.5194C76.8105 46.4544 77.5668 47.2107 78.495 47.2107C79.4231 47.2107 80.1794 46.4476 80.1794 45.5194C80.1794 44.5844 79.4231 43.8281 78.495 43.8281C77.5668 43.8281 76.8105 44.5844 76.8105 45.5194ZM77.2437 45.5194C77.2437 44.825 77.8006 44.2613 78.4881 44.2613C79.1756 44.2613 79.7393 44.825 79.7393 45.5194C79.7393 46.2138 79.1756 46.7776 78.4881 46.7776C77.8074 46.7776 77.2437 46.2138 77.2437 45.5194Z" fill="#14142B"/>
<path d="M85.4512 45.5194C85.4512 46.4544 86.2074 47.2107 87.1356 47.2107C88.0637 47.2107 88.82 46.4476 88.82 45.5194C88.82 44.5844 88.0637 43.8281 87.1356 43.8281C86.2074 43.8281 85.4512 44.5844 85.4512 45.5194ZM85.8843 45.5194C85.8843 44.825 86.4481 44.2613 87.1356 44.2613C87.8231 44.2613 88.3869 44.825 88.3869 45.5194C88.3869 46.2138 87.8231 46.7776 87.1356 46.7776C86.4481 46.7776 85.8843 46.2138 85.8843 45.5194Z" fill="#14142B"/>
<path d="M89.7695 45.5194C89.7695 46.4544 90.5258 47.2107 91.4539 47.2107C92.3821 47.2107 93.1383 46.4476 93.1383 45.5194C93.1383 44.5844 92.3821 43.8281 91.4539 43.8281C90.5258 43.8281 89.7695 44.5844 89.7695 45.5194ZM90.2027 45.5194C90.2027 44.825 90.7664 44.2613 91.4539 44.2613C92.1414 44.2613 92.7052 44.825 92.7052 45.5194C92.7052 46.2138 92.1414 46.7776 91.4539 46.7776C90.7664 46.7776 90.2027 46.2138 90.2027 45.5194Z" fill="#14142B"/>
<path d="M67.1504 49.2421C67.1504 50.1771 67.9067 50.9333 68.8279 50.9333C69.7561 50.9333 70.5123 50.1771 70.5123 49.2421C70.5123 48.307 69.7561 47.5508 68.8279 47.5508C67.9067 47.5508 67.1504 48.3139 67.1504 49.2421ZM67.5835 49.2421C67.5835 48.5477 68.1404 47.9839 68.8279 47.9839C69.5154 47.9839 70.0792 48.5477 70.0792 49.2421C70.0792 49.9365 69.5154 50.5002 68.8279 50.5002C68.1473 50.5071 67.5835 49.9365 67.5835 49.2421Z" fill="#14142B"/>
<path d="M71.4668 49.2421C71.4668 50.1771 72.2231 50.9333 73.1512 50.9333C74.0793 50.9333 74.8356 50.1771 74.8356 49.2421C74.8356 48.307 74.0793 47.5508 73.1512 47.5508C72.2231 47.5508 71.4668 48.3139 71.4668 49.2421ZM71.8999 49.2421C71.8999 48.5477 72.4637 47.9839 73.1512 47.9839C73.8387 47.9839 74.4025 48.5477 74.4025 49.2421C74.4025 49.9365 73.8387 50.5002 73.1512 50.5002C72.4637 50.5071 71.8999 49.9365 71.8999 49.2421Z" fill="#14142B"/>
<path d="M75.791 49.2421C75.791 50.1771 76.5473 50.9333 77.4754 50.9333C78.4036 50.9333 79.1598 50.1771 79.1598 49.2421C79.1598 48.307 78.4036 47.5508 77.4754 47.5508C76.5404 47.5508 75.791 48.3139 75.791 49.2421ZM76.2242 49.2421C76.2242 48.5477 76.7879 47.9839 77.4754 47.9839C78.1629 47.9839 78.7267 48.5477 78.7267 49.2421C78.7267 49.9365 78.1629 50.5002 77.4754 50.5002C76.781 50.5071 76.2242 49.9365 76.2242 49.2421Z" fill="#14142B"/>
<path d="M84.4277 49.2421C84.4277 50.1771 85.184 50.9333 86.1121 50.9333C87.0403 50.9333 87.7965 50.1771 87.7965 49.2421C87.7965 48.307 87.0403 47.5508 86.1121 47.5508C85.184 47.5508 84.4277 48.3139 84.4277 49.2421ZM84.8677 49.2421C84.8677 48.5477 85.4315 47.9839 86.119 47.9839C86.8065 47.9839 87.3703 48.5477 87.3703 49.2421C87.3703 49.9365 86.8065 50.5002 86.119 50.5002C85.4246 50.5071 84.8677 49.9365 84.8677 49.2421Z" fill="#14142B"/>
<path d="M88.752 49.2421C88.752 50.1771 89.5082 50.9333 90.4364 50.9333C91.3645 50.9333 92.1208 50.1771 92.1208 49.2421C92.1208 48.307 91.3645 47.5508 90.4364 47.5508C89.5082 47.5508 88.752 48.3139 88.752 49.2421ZM89.1851 49.2421C89.1851 48.5477 89.7488 47.9839 90.4364 47.9839C91.1239 47.9839 91.6876 48.5477 91.6876 49.2421C91.6876 49.9365 91.1239 50.5002 90.4364 50.5002C89.7488 50.5071 89.1851 49.9365 89.1851 49.2421Z" fill="#14142B"/>
<path d="M65.2656 38.0546C65.2656 38.9896 66.0219 39.7458 66.95 39.7458C67.8782 39.7458 68.6344 38.9896 68.6344 38.0546C68.6344 37.1195 67.8782 36.3633 66.95 36.3633C66.0219 36.3633 65.2656 37.1195 65.2656 38.0546ZM65.6988 38.0546C65.6988 37.3602 66.2625 36.7964 66.95 36.7964C67.6375 36.7964 68.2013 37.3602 68.2013 38.0546C68.2013 38.749 67.6375 39.3127 66.95 39.3127C66.2556 39.3127 65.6988 38.749 65.6988 38.0546Z" fill="#14142B"/>
<path d="M69.584 38.0546C69.584 38.9896 70.3402 39.7458 71.2684 39.7458C72.1965 39.7458 72.9528 38.9896 72.9528 38.0546C72.9528 37.1195 72.1965 36.3633 71.2684 36.3633C70.3402 36.3633 69.584 37.1195 69.584 38.0546ZM70.0171 38.0546C70.0171 37.3602 70.5809 36.7964 71.2684 36.7964C71.9559 36.7964 72.5128 37.3602 72.5128 38.0546C72.5128 38.749 71.9559 39.3127 71.2684 39.3127C70.5809 39.3127 70.0171 38.749 70.0171 38.0546Z" fill="#14142B"/>
<path d="M73.9082 38.0546C73.9082 38.9896 74.6645 39.7458 75.5926 39.7458C76.5207 39.7458 77.277 38.9896 77.277 38.0546C77.277 37.1195 76.5207 36.3633 75.5926 36.3633C74.6576 36.3633 73.9082 37.1195 73.9082 38.0546ZM74.3413 38.0546C74.3413 37.3602 74.8982 36.7964 75.5857 36.7964C76.2732 36.7964 76.837 37.3602 76.837 38.0546C76.837 38.749 76.2732 39.3127 75.5857 39.3127C74.8982 39.3127 74.3413 38.749 74.3413 38.0546Z" fill="#14142B"/>
<path d="M82.543 38.0546C82.543 38.9896 83.2992 39.7458 84.2274 39.7458C85.1555 39.7458 85.9118 38.9896 85.9118 38.0546C85.9118 37.1195 85.1555 36.3633 84.2274 36.3633C83.2992 36.3633 82.543 37.1195 82.543 38.0546ZM82.9761 38.0546C82.9761 37.3602 83.5399 36.7964 84.2274 36.7964C84.9149 36.7964 85.4786 37.3602 85.4786 38.0546C85.4786 38.749 84.9149 39.3127 84.2274 39.3127C83.5399 39.3127 82.9761 38.749 82.9761 38.0546Z" fill="#14142B"/>
<path d="M86.8672 38.0546C86.8672 38.9896 87.6235 39.7458 88.5516 39.7458C89.4797 39.7458 90.236 38.9896 90.236 38.0546C90.236 37.1195 89.4797 36.3633 88.5516 36.3633C87.6166 36.3633 86.8672 37.1195 86.8672 38.0546ZM87.3003 38.0546C87.3003 37.3602 87.8572 36.7964 88.5516 36.7964C89.2391 36.7964 89.8029 37.3602 89.8029 38.0546C89.8029 38.749 89.2391 39.3127 88.5516 39.3127C87.8572 39.3127 87.3003 38.749 87.3003 38.0546Z" fill="#14142B"/>
<path d="M91.1855 38.0546C91.1855 38.9896 91.9418 39.7458 92.87 39.7458C93.7981 39.7458 94.5544 38.9896 94.5544 38.0546C94.5544 37.1195 93.7981 36.3633 92.87 36.3633C91.9418 36.3633 91.1855 37.1195 91.1855 38.0546ZM91.6187 38.0546C91.6187 37.3602 92.1824 36.7964 92.87 36.7964C93.5575 36.7964 94.1212 37.3602 94.1212 38.0546C94.1212 38.749 93.5575 39.3127 92.87 39.3127C92.1824 39.3127 91.6187 38.749 91.6187 38.0546Z" fill="#14142B"/>
<path d="M63.6767 40.577C63.3604 40.8933 63.1816 41.3196 63.1816 41.7733C63.1816 42.7083 63.9379 43.4646 64.866 43.4646C65.7942 43.4646 66.5505 42.7083 66.5505 41.7733C66.5505 41.3196 66.3786 40.9002 66.0554 40.577C65.7392 40.2539 65.3129 40.082 64.866 40.082C64.4123 40.082 63.9929 40.2608 63.6767 40.577ZM63.6148 41.7733C63.6148 41.4364 63.7454 41.1202 63.9792 40.8795C64.2129 40.6389 64.5292 40.5083 64.866 40.5083C65.1961 40.5083 65.5123 40.6389 65.7529 40.8795C65.9867 41.1202 66.1173 41.4364 66.1173 41.7664C66.1173 42.4608 65.5536 43.0246 64.866 43.0246C64.1785 43.0315 63.6148 42.4677 63.6148 41.7733Z" fill="#14142B"/>
<path d="M67.995 40.577C67.6788 40.9002 67.5 41.3196 67.5 41.7733C67.5 42.7083 68.2563 43.4646 69.1844 43.4646C70.1125 43.4646 70.8619 42.7083 70.8619 41.7733C70.8619 41.3196 70.6901 40.9002 70.3738 40.577C70.0575 40.2539 69.6313 40.082 69.1844 40.082C68.7375 40.082 68.3113 40.2608 67.995 40.577ZM67.9331 41.7733C67.9331 41.4364 68.0638 41.1202 68.2975 40.8864C68.5313 40.6458 68.8475 40.5152 69.1844 40.5152C69.5144 40.5152 69.8307 40.6458 70.0644 40.8864C70.2982 41.1271 70.4288 41.4433 70.4288 41.7802C70.4288 42.4746 69.8719 43.0383 69.1844 43.0383C68.4969 43.0315 67.9331 42.4677 67.9331 41.7733Z" fill="#14142B"/>
<path d="M72.3143 40.577C71.998 40.9002 71.8262 41.3196 71.8262 41.7733C71.8262 42.7083 72.5824 43.4646 73.5037 43.4646C74.4318 43.4646 75.1881 42.7083 75.1881 41.7733C75.1881 40.8383 74.4318 40.082 73.5037 40.082C73.0568 40.082 72.6374 40.2608 72.3143 40.577ZM72.2593 41.7733C72.2593 41.4364 72.3899 41.1202 72.6237 40.8795C72.8574 40.6389 73.1737 40.5083 73.5037 40.5083C74.1912 40.5083 74.755 41.0721 74.755 41.7664C74.755 42.4608 74.1912 43.0246 73.5037 43.0246C72.8162 43.0315 72.2593 42.4677 72.2593 41.7733Z" fill="#14142B"/>
<path d="M76.6376 40.577C76.3213 40.9002 76.1426 41.3196 76.1426 41.7733C76.1426 42.7083 76.8988 43.4646 77.827 43.4646C78.7551 43.4646 79.5114 42.7083 79.5114 41.7733C79.5114 41.3196 79.3395 40.9002 79.0232 40.577C78.707 40.2539 78.2807 40.082 77.8339 40.082C77.3801 40.082 76.9538 40.2608 76.6376 40.577ZM76.5757 41.7733C76.5757 41.4364 76.7063 41.1202 76.9401 40.8795C77.1738 40.6389 77.4901 40.5083 77.8201 40.5083C78.157 40.5083 78.4664 40.6389 78.707 40.8795C78.9407 41.1202 79.0714 41.4364 79.0714 41.7733C79.0714 42.4677 78.5076 43.0315 77.8201 43.0315C77.1395 43.0315 76.5757 42.4677 76.5757 41.7733Z" fill="#14142B"/>
<path d="M85.2802 40.577C84.9639 40.9002 84.7852 41.3196 84.7852 41.7733C84.7852 42.7083 85.5414 43.4646 86.4696 43.4646C87.3977 43.4646 88.154 42.7083 88.154 41.7733C88.154 41.3196 87.9821 40.9002 87.659 40.577C87.3427 40.2539 86.9164 40.082 86.4696 40.082C86.0158 40.082 85.5964 40.2608 85.2802 40.577ZM85.2183 41.7733C85.2183 41.4364 85.3489 41.1202 85.5895 40.8864C85.8233 40.6458 86.1396 40.5152 86.4696 40.5152C86.7996 40.5152 87.1158 40.6458 87.3565 40.8864C87.5902 41.1271 87.7208 41.4433 87.7208 41.7733C87.7208 42.4677 87.1571 43.0315 86.4696 43.0315C85.7752 43.0315 85.2183 42.4677 85.2183 41.7733Z" fill="#14142B"/>
<path d="M89.5966 40.577C89.2803 40.9002 89.1016 41.3196 89.1016 41.7733C89.1016 42.7083 89.8578 43.4646 90.786 43.4646C91.7141 43.4646 92.4704 42.7083 92.4704 41.7733C92.4704 41.3196 92.2985 40.9002 91.9754 40.577C91.6591 40.2539 91.2329 40.082 90.786 40.082C90.3391 40.082 89.9128 40.2608 89.5966 40.577ZM89.5347 41.7733C89.5347 41.4364 89.6653 41.1202 89.9059 40.8864C90.1397 40.6458 90.456 40.5152 90.786 40.5152C91.116 40.5152 91.4322 40.6458 91.6729 40.8864C91.9066 41.1271 92.0372 41.4433 92.0372 41.7733C92.0372 42.4677 91.4735 43.0315 90.786 43.0315C90.0985 43.0315 89.5347 42.4677 89.5347 41.7733Z" fill="#14142B"/>
<path d="M93.9149 40.577C93.5987 40.9002 93.4199 41.3196 93.4199 41.7733C93.4199 42.7083 94.1762 43.4646 95.1043 43.4646C96.0325 43.4646 96.7887 42.7083 96.7887 41.7733C96.7887 41.3196 96.6169 40.9002 96.2937 40.577C95.9775 40.2539 95.5512 40.082 95.1043 40.082C94.6574 40.082 94.2312 40.2608 93.9149 40.577ZM93.8599 41.7733C93.8599 41.4364 93.9906 41.1202 94.2243 40.8864C94.4581 40.6458 94.7743 40.5152 95.1112 40.5152C95.4412 40.5152 95.7575 40.6458 95.9981 40.8864C96.2318 41.1271 96.3625 41.4433 96.3625 41.7733C96.3625 42.4677 95.7987 43.0315 95.1112 43.0315C94.4168 43.0315 93.8599 42.4677 93.8599 41.7733Z" fill="#14142B"/>
<path d="M66.8759 29.3934C66.5596 29.7097 66.3809 30.136 66.3809 30.5897C66.3809 31.5247 67.1371 32.281 68.0653 32.281C68.9934 32.281 69.7497 31.5247 69.7497 30.5897C69.7497 29.6547 68.9934 28.8984 68.0653 28.8984C67.6184 28.8984 67.1921 29.0772 66.8759 29.3934ZM66.8209 30.5897C66.8209 30.2528 66.9515 29.9366 67.1852 29.696C67.419 29.4553 67.7353 29.3247 68.0721 29.3247C68.7596 29.3247 69.3234 29.8885 69.3234 30.5828C69.3234 31.2772 68.7596 31.841 68.0721 31.841C67.3778 31.8547 66.8209 31.2841 66.8209 30.5897Z" fill="#14142B"/>
<path d="M71.1981 29.3934C70.8819 29.7097 70.7031 30.136 70.7031 30.5897C70.7031 31.5247 71.4594 32.281 72.3875 32.281C73.3157 32.281 74.0719 31.5247 74.0719 30.5897C74.0719 29.6547 73.3157 28.8984 72.3875 28.8984C71.9406 28.8984 71.5144 29.0772 71.1981 29.3934ZM71.1363 30.5897C71.1363 30.2528 71.2669 29.9366 71.5006 29.696C71.7344 29.4553 72.0506 29.3247 72.3875 29.3247C73.075 29.3247 73.6388 29.8885 73.6388 30.5828C73.6388 31.2772 73.075 31.841 72.3875 31.841C71.7 31.8547 71.1363 31.2841 71.1363 30.5897Z" fill="#14142B"/>
<path d="M79.3457 30.5897C79.3457 31.5247 80.102 32.281 81.0232 32.281C81.9514 32.281 82.7076 31.5247 82.7076 30.5897C82.7076 29.6547 81.9514 28.8984 81.0232 28.8984C80.102 28.8984 79.3457 29.6616 79.3457 30.5897ZM79.7788 30.5897C79.7788 29.8953 80.3357 29.3316 81.0232 29.3316C81.7107 29.3316 82.2745 29.8953 82.2745 30.5897C82.2745 31.2841 81.7107 31.8479 81.0232 31.8479C80.3357 31.8547 79.7788 31.2841 79.7788 30.5897Z" fill="#14142B"/>
<path d="M83.6719 30.5897C83.6719 31.5247 84.4281 32.281 85.3494 32.281C86.2775 32.281 87.0338 31.5247 87.0338 30.5897C87.0338 29.6547 86.2775 28.8984 85.3494 28.8984C84.4213 28.8984 83.6719 29.6616 83.6719 30.5897ZM84.105 30.5897C84.105 29.8953 84.6619 29.3316 85.3494 29.3316C86.0369 29.3316 86.6007 29.8953 86.6007 30.5897C86.6007 31.2841 86.0369 31.8479 85.3494 31.8479C84.6619 31.8547 84.105 31.2841 84.105 30.5897Z" fill="#14142B"/>
<path d="M87.9805 30.5897C87.9805 31.5247 88.7367 32.281 89.6649 32.281C90.593 32.281 91.3493 31.5247 91.3493 30.5897C91.3493 29.6547 90.593 28.8984 89.6649 28.8984C88.7367 28.8984 87.9805 29.6616 87.9805 30.5897ZM88.4136 30.5897C88.4136 29.8953 88.9774 29.3316 89.6649 29.3316C90.3524 29.3316 90.9161 29.8953 90.9161 30.5897C90.9161 31.2841 90.3524 31.8479 89.6649 31.8479C88.9774 31.8547 88.4136 31.2841 88.4136 30.5897Z" fill="#14142B"/>
<path d="M67.3223 26.8553C67.3223 27.7904 68.0785 28.5466 68.9998 28.5466C69.9279 28.5466 70.6842 27.7904 70.6842 26.8553C70.6842 25.9203 69.9279 25.1641 68.9998 25.1641C68.0785 25.1641 67.3223 25.9203 67.3223 26.8553ZM67.7554 26.8553C67.7554 26.161 68.3123 25.5972 68.9998 25.5972C69.6873 25.5972 70.2511 26.161 70.2511 26.8553C70.2511 27.5497 69.6873 28.1135 68.9998 28.1135C68.3123 28.1135 67.7554 27.5497 67.7554 26.8553Z" fill="#14142B"/>
<path d="M71.6387 26.8553C71.6387 27.7904 72.3949 28.5466 73.3162 28.5466C74.2443 28.5466 75.0006 27.7904 75.0006 26.8553C75.0006 25.9203 74.2443 25.1641 73.3162 25.1641C72.3949 25.1641 71.6387 25.9203 71.6387 26.8553ZM72.0718 26.8553C72.0718 26.161 72.6287 25.5972 73.3162 25.5972C74.0037 25.5972 74.5675 26.161 74.5675 26.8553C74.5675 27.5497 74.0037 28.1135 73.3162 28.1135C72.6356 28.1135 72.0718 27.5497 72.0718 26.8553Z" fill="#14142B"/>
<path d="M80.2812 26.8553C80.2812 27.7904 81.0375 28.5466 81.9657 28.5466C82.8938 28.5466 83.6501 27.7904 83.6501 26.8553C83.6501 25.9203 82.8938 25.1641 81.9657 25.1641C81.0375 25.1641 80.2812 25.9203 80.2812 26.8553ZM80.7144 26.8553C80.7144 26.161 81.2781 25.5972 81.9657 25.5972C82.6532 25.5972 83.2169 26.161 83.2169 26.8553C83.2169 27.5497 82.6532 28.1135 81.9657 28.1135C81.2713 28.1135 80.7144 27.5497 80.7144 26.8553Z" fill="#14142B"/>
<path d="M84.5996 26.8553C84.5996 27.7904 85.3559 28.5466 86.284 28.5466C87.2122 28.5466 87.9684 27.7904 87.9684 26.8553C87.9684 25.9203 87.2122 25.1641 86.284 25.1641C85.3559 25.1641 84.5996 25.9203 84.5996 26.8553ZM85.0327 26.8553C85.0327 26.161 85.5965 25.5972 86.284 25.5972C86.9715 25.5972 87.5353 26.161 87.5353 26.8553C87.5353 27.5497 86.9715 28.1135 86.284 28.1135C85.5965 28.1135 85.0327 27.5497 85.0327 26.8553Z" fill="#14142B"/>
<path d="M88.9238 26.8553C88.9238 27.7904 89.6801 28.5466 90.6082 28.5466C91.5364 28.5466 92.2926 27.7904 92.2926 26.8553C92.2926 25.9203 91.5364 25.1641 90.6082 25.1641C89.6801 25.1641 88.9238 25.9203 88.9238 26.8553ZM89.357 26.8553C89.357 26.161 89.9207 25.5972 90.6082 25.5972C91.2957 25.5972 91.8595 26.161 91.8595 26.8553C91.8595 27.5497 91.2957 28.1135 90.6082 28.1135C89.9138 28.1135 89.357 27.5497 89.357 26.8553Z" fill="#14142B"/>
<path d="M62.6191 34.3358C62.6191 35.2708 63.3754 36.0271 64.3035 36.0271C65.2317 36.0271 65.9879 35.2708 65.9879 34.3358C65.9879 33.4008 65.2317 32.6445 64.3035 32.6445C63.3754 32.6445 62.6191 33.4008 62.6191 34.3358ZM63.0523 34.3358C63.0523 33.6414 63.616 33.0777 64.3035 33.0777C64.9911 33.0777 65.5548 33.6414 65.5548 34.3358C65.5548 35.0302 64.9911 35.594 64.3035 35.594C63.616 35.594 63.0523 35.0302 63.0523 34.3358Z" fill="#14142B"/>
<path d="M66.9375 34.3358C66.9375 35.2708 67.6938 36.0271 68.6219 36.0271C69.55 36.0271 70.3063 35.2708 70.3063 34.3358C70.3063 33.4008 69.55 32.6445 68.6219 32.6445C67.6938 32.6445 66.9375 33.4008 66.9375 34.3358ZM67.3706 34.3358C67.3706 33.6414 67.9344 33.0777 68.6219 33.0777C69.3094 33.0777 69.8732 33.6414 69.8732 34.3358C69.8732 35.0302 69.3163 35.594 68.6219 35.594C67.9344 35.594 67.3706 35.0302 67.3706 34.3358Z" fill="#14142B"/>
<path d="M71.2617 34.3358C71.2617 35.2708 72.018 36.0271 72.9461 36.0271C73.8743 36.0271 74.6305 35.2708 74.6305 34.3358C74.6305 33.4008 73.8743 32.6445 72.9461 32.6445C72.018 32.6445 71.2617 33.4008 71.2617 34.3358ZM71.6948 34.3358C71.6948 33.6414 72.2517 33.0777 72.9461 33.0777C73.6336 33.0777 74.1974 33.6414 74.1974 34.3358C74.1974 35.0302 73.6336 35.594 72.9461 35.594C72.2517 35.594 71.6948 35.0302 71.6948 34.3358Z" fill="#14142B"/>
<path d="M79.8965 34.3358C79.8965 35.2708 80.6527 36.0271 81.5809 36.0271C82.509 36.0271 83.2653 35.2708 83.2653 34.3358C83.2653 33.8821 83.0934 33.4558 82.7703 33.1395C82.454 32.8233 82.0278 32.6445 81.5809 32.6445C80.6527 32.6445 79.8965 33.4008 79.8965 34.3358ZM80.3296 34.3358C80.3296 33.6414 80.8934 33.0777 81.5809 33.0777C81.9178 33.0777 82.2272 33.2083 82.4678 33.442C82.7015 33.6827 82.8322 33.9989 82.8322 34.3358C82.8322 35.0302 82.2684 35.594 81.5809 35.594C80.8934 35.594 80.3296 35.0302 80.3296 34.3358Z" fill="#14142B"/>
<path d="M84.2207 34.3358C84.2207 35.2708 84.977 36.0271 85.9051 36.0271C86.8332 36.0271 87.5895 35.2708 87.5895 34.3358C87.5895 33.4008 86.8332 32.6445 85.9051 32.6445C84.977 32.6445 84.2207 33.4008 84.2207 34.3358ZM84.6538 34.3358C84.6538 33.6414 85.2176 33.0777 85.9051 33.0777C86.5926 33.0777 87.1564 33.6414 87.1564 34.3358C87.1564 35.0302 86.5995 35.594 85.9051 35.594C85.2107 35.594 84.6538 35.0302 84.6538 34.3358Z" fill="#14142B"/>
<path d="M88.5391 34.3358C88.5391 35.2708 89.2953 36.0271 90.2235 36.0271C91.1516 36.0271 91.9079 35.2708 91.9079 34.3358C91.9079 33.4008 91.1516 32.6445 90.2235 32.6445C89.2953 32.6445 88.5391 33.4008 88.5391 34.3358ZM88.9722 34.3358C88.9722 33.6414 89.536 33.0777 90.2235 33.0777C90.911 33.0777 91.4747 33.6414 91.4747 34.3358C91.4747 35.0302 90.911 35.594 90.2235 35.594C89.536 35.594 88.9722 35.0302 88.9722 34.3358Z" fill="#14142B"/>
<path d="M93.3505 33.1395C93.0342 33.4558 92.8555 33.8821 92.8555 34.3358C92.8555 34.7896 93.0273 35.209 93.3505 35.5321C93.6667 35.8552 94.093 36.0271 94.5399 36.0271C95.468 36.0271 96.2243 35.2708 96.2243 34.3358C96.2243 33.4008 95.468 32.6445 94.5399 32.6445C94.093 32.6445 93.6667 32.8164 93.3505 33.1395ZM93.6599 35.2296C93.4261 34.989 93.2955 34.6727 93.2955 34.3427C93.2955 34.0058 93.4261 33.6896 93.6599 33.4489C93.8936 33.2083 94.2099 33.0845 94.5467 33.0845C95.2343 33.0845 95.798 33.6483 95.798 34.3427C95.798 35.0371 95.2343 35.6008 94.5467 35.6008C94.2099 35.594 93.8936 35.4633 93.6599 35.2296Z" fill="#14142B"/>
<path d="M13.8737 58.6344C12.1755 58.6344 10.443 59.5351 10.443 61.4257C10.443 63.7702 12.533 64.0383 14.4305 64.4096C17.7306 65.2483 22.5432 66.1833 22.5432 70.5353C22.5432 75.9117 17.9093 77.7817 13.2618 77.7817C8.33231 77.7817 4.85349 75.8567 5.00475 70.3909H9.69358C9.51483 72.7903 10.8898 74.4129 13.303 74.4129C15.1662 74.4129 17.6412 73.8491 17.6412 71.5459C17.6412 69.0021 14.5405 68.8234 12.6705 68.349C9.63858 67.5996 5.54101 66.2246 5.54101 62.402C5.54101 57.4657 10.058 55.2656 14.5062 55.2656C18.7137 55.2656 21.945 57.5482 21.945 61.8933L17.4556 61.907C17.2768 59.7138 16.1081 58.6344 13.8737 58.6344Z" fill="#14142B"/>
<path d="M32.7456 77.7812C27.8711 77.7812 24.9492 74.5362 24.9492 69.813C24.9492 65.0966 27.8711 61.8516 32.7456 61.8516C37.6269 61.8516 40.5489 65.0966 40.5489 69.813C40.5489 74.5431 37.6269 77.7812 32.7456 77.7812ZM32.7456 74.7837C35.4819 74.7837 35.9219 72.2124 35.9219 69.8198C35.9219 67.4342 35.475 64.8629 32.7456 64.8629C30.0162 64.8629 29.5693 67.4342 29.5693 69.8198C29.5693 72.2124 30.0162 74.7837 32.7456 74.7837Z" fill="#14142B"/>
<path d="M47.5627 62.2842H50.2784V65.2886H47.5627V77.3545H43.087V65.2886H40.8457V62.2842H43.087C42.9632 58.0216 43.3551 55.2578 48.2158 55.2578C49.0271 55.2578 49.859 55.3472 50.6634 55.4709V58.2622C47.5008 57.8979 47.4458 59.3348 47.5627 62.2842Z" fill="#14142B"/>
<path d="M54.4225 59.3061L58.8982 57.6836V62.2762H62.267V65.2806H58.8982V72.2589C58.8982 74.2389 59.1938 74.7752 60.7476 74.7752C61.222 74.7752 61.7032 74.7133 62.1776 74.6858V77.3259C61.6689 77.5665 59.2832 77.7796 58.6575 77.7796C55.165 77.7796 54.4225 75.9439 54.4225 72.6783V65.2875H51.4043V62.2831H54.4225V59.3061Z" fill="#14142B"/>
<path d="M66.6265 59.3061L71.1022 57.6836V62.2762H74.4711V65.2806H71.1022V72.2589C71.1022 74.2389 71.3979 74.7752 72.9517 74.7752C73.426 74.7752 73.9073 74.7133 74.3886 74.6858V77.3259C73.8798 77.5665 71.4872 77.7796 70.8616 77.7796C67.3691 77.7796 66.6265 75.9439 66.6265 72.6783V65.2875H63.6152V62.2831H66.6265V59.3061Z" fill="#14142B"/>
<path d="M79.9639 71.0239C79.9639 72.9627 80.232 74.7778 82.549 74.7778C84.1096 74.7778 84.8934 74.2071 85.3127 72.839H89.3416C88.9497 76.5447 86.0553 77.7822 82.5421 77.7822C77.3857 77.7822 75.3301 74.874 75.3301 69.8552C75.3301 65.3382 77.9564 61.8594 82.5421 61.8594C85.3678 61.8594 87.6984 62.8219 88.9497 65.4619C89.3691 66.3007 89.5753 67.1945 89.6991 68.1501C89.8228 69.0851 89.8228 70.0408 89.8228 71.0308H79.9639V71.0239ZM85.1959 68.0264C85.1959 66.3832 84.7421 64.8638 82.549 64.8638C80.4727 64.8638 80.0189 66.3832 79.9639 68.0264H85.1959Z" fill="#14142B"/>
<path d="M96.2173 68.4507L100.638 62.1187H105.622L100.459 68.7188L105.952 77.354H100.727L96.2173 69.1107L96.1623 69.1726V77.354H91.6797V55.6836H96.1623V68.3888L96.2173 68.4507Z" fill="#14142B"/>
</svg>
