<?xml version="1.0" encoding="utf-8"?>
<!-- Generator: Adobe Illustrator 28.1.0, SVG Export Plug-In . SVG Version: 6.00 Build 0)  -->
<svg version="1.1" id="Capa_1" xmlns="http://www.w3.org/2000/svg" xmlns:xlink="http://www.w3.org/1999/xlink" x="0px" y="0px"
	 viewBox="0 0 120 100" style="enable-background:new 0 0 120 100;" xml:space="preserve">
<style type="text/css">
	.st0{fill:#14142B;}
</style>
<g>
	<g>
		<path class="st0" d="M4.1,43c1.9-1.3,4.1-2.3,6.5-3c2.4-0.7,4.8-1,7.2-0.9l-0.4,27.2L4.1,43z"/>
		<path class="st0" d="M20.1,32.5c6.6,0.7,12.7,3.5,17.5,8l-18,25.7C19.6,66.2,20.1,32.5,20.1,32.5z"/>
		<path class="st0" d="M5.1,49.2l9.2,16.1L0,57.4C0.9,54.3,2.7,51.4,5.1,49.2L5.1,49.2z"/>
	</g>
	<g>
		<path class="st0" d="M51,59.1c-0.4,0.2-0.9,0.3-1.5,0.3s-1-0.1-1.4-0.3c-0.4-0.2-0.8-0.4-1.2-0.8c-0.3-0.3-0.6-0.7-0.8-1.2
			c-0.2-0.5-0.3-1-0.3-1.5V45.2l-3.1,0v10.4c0,1.3,0.3,2.5,0.9,3.5c0.6,1,1.4,1.8,2.4,2.3c1,0.5,2.2,0.8,3.5,0.8
			c1.3,0,2.5-0.3,3.5-0.8c1-0.5,1.8-1.3,2.4-2.3c0.6-1,0.9-2.2,0.9-3.5V45.2h-3.1v10.4c0,0.6-0.1,1.1-0.3,1.5
			c-0.2,0.5-0.4,0.9-0.8,1.2C51.8,58.6,51.4,58.9,51,59.1L51,59.1z"/>
		<path class="st0" d="M70.2,52.3c-0.1-0.5-0.4-1.1-0.7-1.6c-0.3-0.5-0.8-0.9-1.4-1.3S66.6,49,65.6,49c-1.2,0-2.2,0.3-3,0.8
			c-0.4,0.2-0.7,0.5-1,0.9l-0.1,0.1v-1.4h-2.7v12.5h3.1v-6.3c0-0.8,0.1-1.4,0.3-1.9c0.2-0.5,0.4-0.9,0.7-1.1
			c0.3-0.2,0.6-0.4,0.9-0.5c0.3-0.1,0.6-0.1,0.9-0.1c0.7,0,1.2,0.2,1.6,0.5c0.4,0.3,0.7,0.7,0.8,1.2c0.2,0.5,0.3,0.9,0.3,1.4
			c0,0.4,0,0.8,0,1.1v5.9h3.1v-7c0-0.2,0-0.5,0-1C70.4,53.4,70.3,52.9,70.2,52.3L70.2,52.3z"/>
		<path class="st0" d="M74.5,44.4L74.5,44.4c0.9,0,1.7,0.8,1.7,1.7v0.1c0,0.9-0.8,1.7-1.7,1.7h0c-0.9,0-1.7-0.8-1.7-1.7v-0.1
			C72.8,45.2,73.5,44.4,74.5,44.4z"/>
		<polygon class="st0" points="72.9,61.9 76,61.9 76,49.4 72.9,50.3 		"/>
		<path class="st0" d="M102.2,64.6L102.2,64.6v2.9h1.6c1,0,1.9-0.3,2.5-0.9c0.6-0.6,0.9-1.4,0.9-2.4V49.4l-3.1,0.9v12.4
			c0,0.6-0.1,1.1-0.4,1.4C103.4,64.4,102.9,64.6,102.2,64.6L102.2,64.6z"/>
		<path class="st0" d="M105.6,44.4L105.6,44.4c0.9,0,1.7,0.8,1.7,1.7v0.1c0,0.9-0.8,1.7-1.7,1.7h0c-0.9,0-1.7-0.8-1.7-1.7v-0.1
			C103.9,45.2,104.7,44.4,105.6,44.4z"/>
		<path class="st0" d="M102.1,52.7c0-0.5-0.2-0.9-0.4-1.4c-0.2-0.5-0.6-0.8-0.9-1.1c-0.2-0.2-0.5-0.4-1-0.6
			c-2.8-1.2-5.3-0.1-5.3-0.1c-0.3,0.1-0.6,0.3-1.1,0.6c-1.5,1.1-1.9,2.8-2,3.4l3.1,0c0.1-0.2,0.2-0.7,0.7-1.1
			c0.1-0.1,0.3-0.3,0.7-0.4c0.7-0.3,1.9-0.3,2.7,0.5c0.6,0.6,0.6,1.3,0.6,1.6v0.1l0,0c-0.5,0.1-1,0.2-1.5,0.2
			c-0.8,0.1-1.6,0.2-2.2,0.4c-0.6,0.1-1.2,0.3-1.7,0.5c-0.7,0.2-1.2,0.6-1.6,0.9c-0.4,0.4-0.7,0.8-0.9,1.3c-0.2,0.5-0.3,0.7-0.3,1.3
			c0,0.7,0.2,1.3,0.5,1.9c0.3,0.6,0.8,1,1.4,1.4c0.6,0.3,1.4,0.5,2.3,0.5c1.1,0,2-0.2,2.7-0.6c0.6-0.3,1.1-0.7,1.6-1.3l0.1-0.1v1.6
			h2.7v-7.6C102.2,53.7,102.1,53.1,102.1,52.7L102.1,52.7z M99.1,56.4c0,0.2,0,0.2,0,0.5c0,0.5-0.1,0.9-0.3,1.2
			c-0.1,0.2-0.3,0.4-0.5,0.7c-0.2,0.3-0.6,0.5-1,0.7c-0.4,0.2-0.9,0.3-1.5,0.3c-0.4,0-0.7-0.1-1-0.2c-0.3-0.1-0.5-0.3-0.6-0.5
			C94.1,59,94,59,94,58.7c0-0.2,0-0.4,0.1-0.6c0.1-0.2,0.2-0.3,0.4-0.5c0.2-0.1,0.4-0.3,0.8-0.4c0.3-0.1,0.6-0.2,1-0.3
			c0.4-0.1,0.8-0.2,1.4-0.3C98.1,56.5,98.6,56.5,99.1,56.4L99.1,56.4L99.1,56.4L99.1,56.4z"/>
		<path class="st0" d="M86.7,57.1c0,0.2-0.1,1.1-0.9,1.7c-0.6,0.5-1.3,0.5-1.7,0.5c-1,0-1.7-0.3-2.2-1c-0.5-0.7-0.7-1.6-0.7-2.7
			c0-0.7,0.1-1.3,0.3-1.9c0.2-0.6,0.5-1,1-1.3c0.4-0.3,1-0.5,1.7-0.5c0.3,0,0.5,0,0.8,0.1c0,0,0.4,0.1,0.8,0.4c0.7,0.6,1,1.5,1,1.7
			h3.1c0-0.4,0-0.7-0.1-1c-0.2-1-0.6-1.7-0.9-2.1c-0.1-0.1-0.4-0.5-1-0.9c-1-0.7-2.2-1.1-3.7-1.1c-1.3,0-2.4,0.3-3.3,0.9
			c-0.9,0.6-1.7,1.4-2.2,2.3c-0.5,1-0.8,2.1-0.8,3.4s0.2,2.4,0.7,3.4s1.2,1.8,2.1,2.4c0.9,0.6,2,0.9,3.3,0.9c0.7,0,2.2,0,3.7-1.1
			c0.4-0.3,1.6-1.3,2-3c0.1-0.3,0.1-0.6,0.1-1L86.7,57.1L86.7,57.1z"/>
		<path class="st0" d="M119.9,52.7c0-0.5-0.2-0.9-0.4-1.4c-0.2-0.5-0.6-0.8-0.9-1.1c-0.2-0.2-0.5-0.4-1-0.6
			c-2.8-1.2-5.3-0.1-5.3-0.1c-0.3,0.1-0.6,0.3-1.1,0.6c-1.5,1.1-1.9,2.8-2,3.4l3.1,0c0.1-0.2,0.2-0.7,0.7-1.1
			c0.1-0.1,0.3-0.3,0.7-0.4c0.7-0.3,1.9-0.3,2.7,0.5c0.6,0.6,0.6,1.3,0.6,1.6v0.1l0,0c-0.5,0.1-1,0.2-1.5,0.2
			c-0.8,0.1-1.6,0.2-2.2,0.4c-0.6,0.1-1.2,0.3-1.7,0.5c-0.7,0.2-1.2,0.6-1.6,0.9c-0.4,0.4-0.7,0.8-0.9,1.3c-0.2,0.5-0.3,0.7-0.3,1.3
			c0,0.7,0.2,1.3,0.5,1.9s0.8,1,1.4,1.4c0.6,0.3,1.4,0.5,2.3,0.5c1.1,0,2-0.2,2.7-0.6c0.6-0.3,1.1-0.7,1.6-1.3l0.1-0.1v1.6h2.7v-7.6
			C120,53.7,120,53.1,119.9,52.7L119.9,52.7z M117,56.4c0,0.2,0,0.2,0,0.5c0,0.5-0.1,0.9-0.3,1.2c-0.1,0.2-0.3,0.4-0.5,0.7
			c-0.2,0.3-0.6,0.5-1,0.7c-0.4,0.2-0.9,0.3-1.5,0.3c-0.4,0-0.7-0.1-1-0.2c-0.3-0.1-0.5-0.3-0.6-0.5c-0.1-0.2-0.2-0.2-0.2-0.5
			c0-0.2,0-0.4,0.1-0.6c0.1-0.2,0.2-0.3,0.4-0.5c0.2-0.1,0.4-0.3,0.8-0.4c0.3-0.1,0.6-0.2,1-0.3c0.4-0.1,0.8-0.2,1.4-0.3
			C115.9,56.5,116.4,56.5,117,56.4L117,56.4L117,56.4L117,56.4z"/>
	</g>
</g>
</svg>
