<svg width="120" height="100" viewBox="0 0 120 100" fill="none" xmlns="http://www.w3.org/2000/svg">
<path d="M56.1602 48.5517V49.8759C57.1303 49.8898 58.1035 49.8898 59.0671 50.0153C59.888 50.1216 60.7486 50.2707 61.4461 50.7472C62.091 51.1882 62.443 51.891 62.443 52.669V59.2479C62.443 59.4196 62.3764 59.5848 62.2552 59.705C60.8108 61.1268 59.3354 61.8039 57.8943 61.8039C54.365 61.8039 51.8819 57.9763 51.4474 51.5337C51.4184 51.0959 51.3712 49.6806 51.4452 48.8565C51.898 41.9546 54.6451 38.0895 58.1636 38.0895C61.0931 38.0895 63.6072 40.286 65.3799 46.0654H66.2384L66.175 39.684C64.9807 38.0551 61.8635 36.5625 58.0853 36.5625C54.6762 36.5625 51.516 38.1195 49.4719 40.8536C46.6798 44.5879 45.978 49.6505 47.1347 54.108C47.8891 57.0159 49.4461 59.778 51.9056 61.57C53.5205 62.746 55.5046 63.4285 57.5069 63.4285C58.9641 63.4285 60.5726 62.9145 61.9204 62.0325C62.767 61.4788 63.8465 61.4251 64.7243 61.9284L66.3145 62.8415H67.0657V52.6701C67.0657 50.7311 67.7707 50.1098 69.9672 49.8769V48.5528H56.1602V48.5517Z" fill="#14142B"/>
<path d="M25.7116 53.5189C23.1266 57.0643 21.5663 59.0602 20.3763 60.2019C19.3913 61.1387 18.4888 61.261 16.847 61.261L11.5279 61.2599C11.4206 61.2599 11.3552 61.1429 11.4109 61.0517L24.9819 38.8074L24.3102 37.1484H7.70569L5.02734 45.8348L5.7538 46.1857C8.24436 42.7702 9.74771 40.8462 10.8937 39.7474C11.8423 38.8449 12.7126 38.7269 14.2942 38.7269L19.3226 38.7258C19.4299 38.7258 19.4953 38.8428 19.4396 38.934L5.86325 61.1848L6.51138 62.8384H23.6717L26.438 53.8698L25.7116 53.5189Z" fill="#14142B"/>
<path d="M37.5221 50.0701C36.6894 49.8351 34.2546 49.8738 34.2546 49.8738C34.1183 49.8738 34.0067 49.9843 34.0067 50.1216V61.0152C34.0067 61.1515 34.1173 61.2631 34.2546 61.2631H37.4169C38.7754 61.2631 39.5222 61.1623 40.3367 60.3864C41.3218 59.4422 42.6116 57.7907 44.7502 54.8581L45.4766 55.209L43.1234 62.8384H27.0684V61.6623C27.0684 61.6623 27.5512 61.6612 27.9247 61.6033C28.3678 61.5153 28.7831 61.3318 29.0589 60.9562C29.2928 60.6375 29.3819 60.2341 29.3883 59.8435V40.1444C29.3819 39.7527 29.2928 39.3503 29.0589 39.0316C28.7831 38.655 28.3678 38.4715 27.9247 38.3846C27.5512 38.3267 27.0684 38.3256 27.0684 38.3256V37.1484H43.1299L45.4788 44.78L44.7523 45.1319C42.6137 42.1993 41.3228 40.5468 40.3388 39.6036C39.5244 38.8278 38.7765 38.7269 37.4191 38.7269H34.2546C34.1183 38.7269 34.0067 38.8374 34.0067 38.9748V48.3028C34.0067 48.4391 34.1173 48.5507 34.2546 48.5507C34.2546 48.5507 36.1604 48.5839 36.9469 48.4326C37.8869 48.2363 38.3161 47.7319 38.3505 46.7705C38.3741 46.117 38.0554 44.6845 37.9985 44.4978H39.1832L41.9549 53.4996H40.7251C39.9321 51.787 39.4782 50.6732 37.5221 50.0701Z" fill="#14142B"/>
<path d="M72.4426 40.0714C71.2472 38.6207 70.6194 38.3342 68.9219 38.3342V37.1484H76.4987L88.0158 56.8604C88.0673 56.9484 88.2025 56.9119 88.2025 56.81L88.2015 41.6037C88.1897 40.8998 88.0298 40.1755 87.6091 39.6014C87.1027 38.9104 86.3343 38.581 85.5188 38.4275C85.5188 38.4275 85.0284 38.3395 84.0412 38.3299V37.1495H93.2148V38.332C92.1364 38.4157 91.03 38.7011 90.368 39.6036C89.9463 40.1777 89.7874 40.902 89.7756 41.6059V62.8405H85.9953L74.3751 43.1221C74.3236 43.0341 74.1884 43.0706 74.1884 43.1725L74.1895 58.3831C74.2013 59.0795 74.3612 59.7973 74.7818 60.3661C75.636 61.5185 77.2284 61.6537 78.5472 61.6559V62.8384H69.1762V61.6559C70.2546 61.5722 71.3609 61.2867 72.023 60.3843C72.4447 59.8102 72.6025 59.0859 72.6153 58.382V40.5543C72.6153 40.3783 72.5531 40.2077 72.4426 40.0714Z" fill="#14142B"/>
<path d="M111.313 58.7812L104.213 37.1484H97.465V38.3309C98.846 38.3288 98.9963 38.4286 99.2377 38.5305C99.6959 38.7602 100.117 39.2527 100.367 40.1541C100.367 40.1541 100.436 40.3483 100.365 40.5725L94.2351 59.1245C93.6224 60.8747 92.8637 61.4788 91.4902 61.6569V62.8394H99.2956V61.6569C97.0658 61.6816 96.2825 61.1784 96.2825 61.1784C95.365 60.6365 95.8586 59.1932 95.8586 59.1932L96.8212 56.2874C96.8802 56.1103 97.0454 55.9902 97.2332 55.9902H105.152C105.34 55.9902 105.508 56.1114 105.564 56.2906L106.507 59.2115C106.63 59.6385 106.772 60.0989 106.655 60.5431C106.466 61.2631 105.627 61.467 104.987 61.5604C104.496 61.6312 104.074 61.6559 103.577 61.6559V62.8384H115.028V61.6559C112.908 61.4273 112.011 60.6762 111.313 58.7812ZM104.809 54.4965H97.5938C97.5047 54.4965 97.4425 54.4095 97.4704 54.3258L101.155 43.1897C101.185 43.0974 101.316 43.0985 101.345 43.1908L104.932 54.328C104.96 54.4106 104.897 54.4965 104.809 54.4965Z" fill="#14142B"/>
</svg>
